# Blender v2.77 (sub 0) OBJ File: ''
# www.blender.org
o Grid
v -1.000000 0.000000 1.000000
v -0.777778 0.000000 1.000000
v -0.555556 0.000000 1.000000
v -0.333333 0.000000 1.000000
v -0.111111 0.000000 1.000000
v 0.111111 0.000000 1.000000
v 0.333333 0.000000 1.000000
v 0.555556 0.000000 1.000000
v 0.777778 0.000000 1.000000
v 1.000000 0.000000 1.000000
v -1.000000 0.000000 0.777778
v -0.777778 0.000000 0.777778
v -0.555556 0.000000 0.777778
v -0.333333 0.000000 0.777778
v -0.111111 0.000000 0.777778
v 0.111111 0.000000 0.777778
v 0.333333 0.000000 0.777778
v 0.555556 0.000000 0.777778
v 0.777778 0.000000 0.777778
v 1.000000 0.000000 0.777778
v -1.000000 0.000000 0.555556
v -0.777778 0.000000 0.555556
v -0.555556 0.000000 0.555556
v -0.333333 0.000000 0.555556
v -0.111111 0.000000 0.555556
v 0.111111 0.000000 0.555556
v 0.333333 0.000000 0.555556
v 0.555556 0.000000 0.555556
v 0.777778 0.000000 0.555556
v 1.000000 0.000000 0.555556
v -1.000000 0.000000 0.333333
v -0.777778 0.000000 0.333333
v -0.555556 0.000000 0.333333
v -0.333333 0.000000 0.333333
v -0.111111 0.000000 0.333333
v 0.111111 0.000000 0.333333
v 0.333333 0.000000 0.333333
v 0.555556 0.000000 0.333333
v 0.777778 0.000000 0.333333
v 1.000000 0.000000 0.333333
v -1.000000 0.000000 0.111111
v -0.777778 0.000000 0.111111
v -0.555556 0.000000 0.111111
v -0.333333 0.000000 0.111111
v -0.111111 0.000000 0.111111
v 0.111111 0.000000 0.111111
v 0.333333 0.000000 0.111111
v 0.555556 0.000000 0.111111
v 0.777778 0.000000 0.111111
v 1.000000 0.000000 0.111111
v -1.000000 0.000000 -0.111111
v -0.777778 0.000000 -0.111111
v -0.555556 0.000000 -0.111111
v -0.333333 0.000000 -0.111111
v -0.111111 0.000000 -0.111111
v 0.111111 0.000000 -0.111111
v 0.333333 0.000000 -0.111111
v 0.555556 0.000000 -0.111111
v 0.777778 0.000000 -0.111111
v 1.000000 0.000000 -0.111111
v -1.000000 0.000000 -0.333333
v -0.777778 0.000000 -0.333333
v -0.555556 0.000000 -0.333333
v -0.333333 0.000000 -0.333333
v -0.111111 0.000000 -0.333333
v 0.111111 0.000000 -0.333333
v 0.333333 0.000000 -0.333333
v 0.555556 0.000000 -0.333333
v 0.777778 0.000000 -0.333333
v 1.000000 0.000000 -0.333333
v -1.000000 0.000000 -0.555556
v -0.777778 0.000000 -0.555556
v -0.555556 0.000000 -0.555556
v -0.333333 0.000000 -0.555556
v -0.111111 0.000000 -0.555556
v 0.111111 0.000000 -0.555556
v 0.333333 0.000000 -0.555556
v 0.555556 0.000000 -0.555556
v 0.777778 0.000000 -0.555556
v 1.000000 0.000000 -0.555556
v -1.000000 0.000000 -0.777778
v -0.777778 0.000000 -0.777778
v -0.555556 0.000000 -0.777778
v -0.333333 0.000000 -0.777778
v -0.111111 0.000000 -0.777778
v 0.111111 0.000000 -0.777778
v 0.333333 0.000000 -0.777778
v 0.555556 0.000000 -0.777778
v 0.777778 0.000000 -0.777778
v 1.000000 0.000000 -0.777778
v -1.000000 0.000000 -1.000000
v -0.777778 0.000000 -1.000000
v -0.555556 0.000000 -1.000000
v -0.333333 0.000000 -1.000000
v -0.111111 0.000000 -1.000000
v 0.111111 0.000000 -1.000000
v 0.333333 0.000000 -1.000000
v 0.555556 0.000000 -1.000000
v 0.777778 0.000000 -1.000000
v 1.000000 0.000000 -1.000000
vt 0.1111 0.1111
vt 0.0000 0.0000
vt 0.1111 0.0000
vt 0.2222 0.1111
vt 0.1111 0.0000
vt 0.2222 0.0000
vt 0.3333 0.1111
vt 0.2222 0.0000
vt 0.3333 0.0000
vt 0.4444 0.1111
vt 0.3333 0.0000
vt 0.4444 0.0000
vt 0.5556 0.1111
vt 0.4444 0.0000
vt 0.5556 0.0000
vt 0.6667 0.1111
vt 0.5556 0.0000
vt 0.6667 0.0000
vt 0.7778 0.1111
vt 0.6667 0.0000
vt 0.7778 0.0000
vt 0.8889 0.1111
vt 0.7778 0.0000
vt 0.8889 0.0000
vt 1.0000 0.1111
vt 0.8889 0.0000
vt 1.0000 0.0000
vt 0.1111 0.2222
vt 0.0000 0.1111
vt 0.1111 0.1111
vt 0.2222 0.2222
vt 0.1111 0.1111
vt 0.2222 0.1111
vt 0.3333 0.2222
vt 0.2222 0.1111
vt 0.3333 0.1111
vt 0.4444 0.2222
vt 0.3333 0.1111
vt 0.4444 0.1111
vt 0.5556 0.2222
vt 0.4444 0.1111
vt 0.5556 0.1111
vt 0.6667 0.2222
vt 0.5556 0.1111
vt 0.6667 0.1111
vt 0.7778 0.2222
vt 0.6667 0.1111
vt 0.7778 0.1111
vt 0.8889 0.2222
vt 0.7778 0.1111
vt 0.8889 0.1111
vt 1.0000 0.2222
vt 0.8889 0.1111
vt 1.0000 0.1111
vt 0.1111 0.3333
vt 0.0000 0.2222
vt 0.1111 0.2222
vt 0.2222 0.3333
vt 0.1111 0.2222
vt 0.2222 0.2222
vt 0.3333 0.3333
vt 0.2222 0.2222
vt 0.3333 0.2222
vt 0.4444 0.3333
vt 0.3333 0.2222
vt 0.4444 0.2222
vt 0.5556 0.3333
vt 0.4444 0.2222
vt 0.5556 0.2222
vt 0.6667 0.3333
vt 0.5556 0.2222
vt 0.6667 0.2222
vt 0.7778 0.3333
vt 0.6667 0.2222
vt 0.7778 0.2222
vt 0.8889 0.3333
vt 0.7778 0.2222
vt 0.8889 0.2222
vt 1.0000 0.3333
vt 0.8889 0.2222
vt 1.0000 0.2222
vt 0.1111 0.4444
vt 0.0000 0.3333
vt 0.1111 0.3333
vt 0.2222 0.4444
vt 0.1111 0.3333
vt 0.2222 0.3333
vt 0.3333 0.4444
vt 0.2222 0.3333
vt 0.3333 0.3333
vt 0.4444 0.4444
vt 0.3333 0.3333
vt 0.4444 0.3333
vt 0.5556 0.4444
vt 0.4444 0.3333
vt 0.5556 0.3333
vt 0.6667 0.4444
vt 0.5556 0.3333
vt 0.6667 0.3333
vt 0.7778 0.4444
vt 0.6667 0.3333
vt 0.7778 0.3333
vt 0.8889 0.4444
vt 0.7778 0.3333
vt 0.8889 0.3333
vt 1.0000 0.4444
vt 0.8889 0.3333
vt 1.0000 0.3333
vt 0.1111 0.5556
vt 0.0000 0.4444
vt 0.1111 0.4444
vt 0.2222 0.5556
vt 0.1111 0.4444
vt 0.2222 0.4444
vt 0.3333 0.5556
vt 0.2222 0.4444
vt 0.3333 0.4444
vt 0.4444 0.5556
vt 0.3333 0.4444
vt 0.4444 0.4444
vt 0.5556 0.5556
vt 0.4444 0.4444
vt 0.5556 0.4444
vt 0.6667 0.5556
vt 0.5556 0.4444
vt 0.6667 0.4444
vt 0.7778 0.5556
vt 0.6667 0.4444
vt 0.7778 0.4444
vt 0.8889 0.5556
vt 0.7778 0.4444
vt 0.8889 0.4444
vt 1.0000 0.5556
vt 0.8889 0.4444
vt 1.0000 0.4444
vt 0.1111 0.6667
vt 0.0000 0.5556
vt 0.1111 0.5556
vt 0.2222 0.6667
vt 0.1111 0.5556
vt 0.2222 0.5556
vt 0.3333 0.6667
vt 0.2222 0.5556
vt 0.3333 0.5556
vt 0.4444 0.6667
vt 0.3333 0.5556
vt 0.4444 0.5556
vt 0.5556 0.6667
vt 0.4444 0.5556
vt 0.5556 0.5556
vt 0.6667 0.6667
vt 0.5556 0.5556
vt 0.6667 0.5556
vt 0.7778 0.6667
vt 0.6667 0.5556
vt 0.7778 0.5556
vt 0.8889 0.6667
vt 0.7778 0.5556
vt 0.8889 0.5556
vt 1.0000 0.6667
vt 0.8889 0.5556
vt 1.0000 0.5556
vt 0.1111 0.7778
vt 0.0000 0.6667
vt 0.1111 0.6667
vt 0.2222 0.7778
vt 0.1111 0.6667
vt 0.2222 0.6667
vt 0.3333 0.7778
vt 0.2222 0.6667
vt 0.3333 0.6667
vt 0.4444 0.7778
vt 0.3333 0.6667
vt 0.4444 0.6667
vt 0.5556 0.7778
vt 0.4444 0.6667
vt 0.5556 0.6667
vt 0.6667 0.7778
vt 0.5556 0.6667
vt 0.6667 0.6667
vt 0.7778 0.7778
vt 0.6667 0.6667
vt 0.7778 0.6667
vt 0.8889 0.7778
vt 0.7778 0.6667
vt 0.8889 0.6667
vt 1.0000 0.7778
vt 0.8889 0.6667
vt 1.0000 0.6667
vt 0.1111 0.8889
vt 0.0000 0.7778
vt 0.1111 0.7778
vt 0.2222 0.8889
vt 0.1111 0.7778
vt 0.2222 0.7778
vt 0.3333 0.8889
vt 0.2222 0.7778
vt 0.3333 0.7778
vt 0.4444 0.8889
vt 0.3333 0.7778
vt 0.4444 0.7778
vt 0.5556 0.8889
vt 0.4444 0.7778
vt 0.5556 0.7778
vt 0.6667 0.8889
vt 0.5556 0.7778
vt 0.6667 0.7778
vt 0.7778 0.8889
vt 0.6667 0.7778
vt 0.7778 0.7778
vt 0.8889 0.8889
vt 0.7778 0.7778
vt 0.8889 0.7778
vt 1.0000 0.8889
vt 0.8889 0.7778
vt 1.0000 0.7778
vt 0.1111 1.0000
vt 0.0000 0.8889
vt 0.1111 0.8889
vt 0.2222 1.0000
vt 0.1111 0.8889
vt 0.2222 0.8889
vt 0.3333 1.0000
vt 0.2222 0.8889
vt 0.3333 0.8889
vt 0.4444 1.0000
vt 0.3333 0.8889
vt 0.4444 0.8889
vt 0.5556 1.0000
vt 0.4444 0.8889
vt 0.5556 0.8889
vt 0.6667 1.0000
vt 0.5556 0.8889
vt 0.6667 0.8889
vt 0.7778 1.0000
vt 0.6667 0.8889
vt 0.7778 0.8889
vt 0.8889 1.0000
vt 0.7778 0.8889
vt 0.8889 0.8889
vt 1.0000 1.0000
vt 0.8889 0.8889
vt 1.0000 0.8889
vt 0.0000 0.1111
vt 0.1111 0.1111
vt 0.2222 0.1111
vt 0.3333 0.1111
vt 0.4444 0.1111
vt 0.5556 0.1111
vt 0.6667 0.1111
vt 0.7778 0.1111
vt 0.8889 0.1111
vt 0.0000 0.2222
vt 0.1111 0.2222
vt 0.2222 0.2222
vt 0.3333 0.2222
vt 0.4444 0.2222
vt 0.5556 0.2222
vt 0.6667 0.2222
vt 0.7778 0.2222
vt 0.8889 0.2222
vt 0.0000 0.3333
vt 0.1111 0.3333
vt 0.2222 0.3333
vt 0.3333 0.3333
vt 0.4444 0.3333
vt 0.5556 0.3333
vt 0.6667 0.3333
vt 0.7778 0.3333
vt 0.8889 0.3333
vt 0.0000 0.4444
vt 0.1111 0.4444
vt 0.2222 0.4444
vt 0.3333 0.4444
vt 0.4444 0.4444
vt 0.5556 0.4444
vt 0.6667 0.4444
vt 0.7778 0.4444
vt 0.8889 0.4444
vt 0.0000 0.5556
vt 0.1111 0.5556
vt 0.2222 0.5556
vt 0.3333 0.5556
vt 0.4444 0.5556
vt 0.5556 0.5556
vt 0.6667 0.5556
vt 0.7778 0.5556
vt 0.8889 0.5556
vt 0.0000 0.6667
vt 0.1111 0.6667
vt 0.2222 0.6667
vt 0.3333 0.6667
vt 0.4444 0.6667
vt 0.5556 0.6667
vt 0.6667 0.6667
vt 0.7778 0.6667
vt 0.8889 0.6667
vt 0.0000 0.7778
vt 0.1111 0.7778
vt 0.2222 0.7778
vt 0.3333 0.7778
vt 0.4444 0.7778
vt 0.5556 0.7778
vt 0.6667 0.7778
vt 0.7778 0.7778
vt 0.8889 0.7778
vt 0.0000 0.8889
vt 0.1111 0.8889
vt 0.2222 0.8889
vt 0.3333 0.8889
vt 0.4444 0.8889
vt 0.5556 0.8889
vt 0.6667 0.8889
vt 0.7778 0.8889
vt 0.8889 0.8889
vt 0.0000 1.0000
vt 0.1111 1.0000
vt 0.2222 1.0000
vt 0.3333 1.0000
vt 0.4444 1.0000
vt 0.5556 1.0000
vt 0.6667 1.0000
vt 0.7778 1.0000
vt 0.8889 1.0000
vn 0.0000 1.0000 0.0000
s off
f 2/1/1 11/2/1 1/3/1
f 3/4/1 12/5/1 2/6/1
f 4/7/1 13/8/1 3/9/1
f 5/10/1 14/11/1 4/12/1
f 6/13/1 15/14/1 5/15/1
f 7/16/1 16/17/1 6/18/1
f 8/19/1 17/20/1 7/21/1
f 9/22/1 18/23/1 8/24/1
f 10/25/1 19/26/1 9/27/1
f 12/28/1 21/29/1 11/30/1
f 13/31/1 22/32/1 12/33/1
f 14/34/1 23/35/1 13/36/1
f 15/37/1 24/38/1 14/39/1
f 16/40/1 25/41/1 15/42/1
f 17/43/1 26/44/1 16/45/1
f 18/46/1 27/47/1 17/48/1
f 19/49/1 28/50/1 18/51/1
f 20/52/1 29/53/1 19/54/1
f 22/55/1 31/56/1 21/57/1
f 23/58/1 32/59/1 22/60/1
f 24/61/1 33/62/1 23/63/1
f 25/64/1 34/65/1 24/66/1
f 26/67/1 35/68/1 25/69/1
f 27/70/1 36/71/1 26/72/1
f 28/73/1 37/74/1 27/75/1
f 29/76/1 38/77/1 28/78/1
f 30/79/1 39/80/1 29/81/1
f 32/82/1 41/83/1 31/84/1
f 33/85/1 42/86/1 32/87/1
f 34/88/1 43/89/1 33/90/1
f 35/91/1 44/92/1 34/93/1
f 36/94/1 45/95/1 35/96/1
f 37/97/1 46/98/1 36/99/1
f 38/100/1 47/101/1 37/102/1
f 39/103/1 48/104/1 38/105/1
f 40/106/1 49/107/1 39/108/1
f 42/109/1 51/110/1 41/111/1
f 43/112/1 52/113/1 42/114/1
f 44/115/1 53/116/1 43/117/1
f 45/118/1 54/119/1 44/120/1
f 46/121/1 55/122/1 45/123/1
f 47/124/1 56/125/1 46/126/1
f 48/127/1 57/128/1 47/129/1
f 49/130/1 58/131/1 48/132/1
f 50/133/1 59/134/1 49/135/1
f 52/136/1 61/137/1 51/138/1
f 53/139/1 62/140/1 52/141/1
f 54/142/1 63/143/1 53/144/1
f 55/145/1 64/146/1 54/147/1
f 56/148/1 65/149/1 55/150/1
f 57/151/1 66/152/1 56/153/1
f 58/154/1 67/155/1 57/156/1
f 59/157/1 68/158/1 58/159/1
f 60/160/1 69/161/1 59/162/1
f 62/163/1 71/164/1 61/165/1
f 63/166/1 72/167/1 62/168/1
f 64/169/1 73/170/1 63/171/1
f 65/172/1 74/173/1 64/174/1
f 66/175/1 75/176/1 65/177/1
f 67/178/1 76/179/1 66/180/1
f 68/181/1 77/182/1 67/183/1
f 69/184/1 78/185/1 68/186/1
f 70/187/1 79/188/1 69/189/1
f 72/190/1 81/191/1 71/192/1
f 73/193/1 82/194/1 72/195/1
f 74/196/1 83/197/1 73/198/1
f 75/199/1 84/200/1 74/201/1
f 76/202/1 85/203/1 75/204/1
f 77/205/1 86/206/1 76/207/1
f 78/208/1 87/209/1 77/210/1
f 79/211/1 88/212/1 78/213/1
f 80/214/1 89/215/1 79/216/1
f 82/217/1 91/218/1 81/219/1
f 83/220/1 92/221/1 82/222/1
f 84/223/1 93/224/1 83/225/1
f 85/226/1 94/227/1 84/228/1
f 86/229/1 95/230/1 85/231/1
f 87/232/1 96/233/1 86/234/1
f 88/235/1 97/236/1 87/237/1
f 89/238/1 98/239/1 88/240/1
f 90/241/1 99/242/1 89/243/1
f 2/1/1 12/244/1 11/2/1
f 3/4/1 13/245/1 12/5/1
f 4/7/1 14/246/1 13/8/1
f 5/10/1 15/247/1 14/11/1
f 6/13/1 16/248/1 15/14/1
f 7/16/1 17/249/1 16/17/1
f 8/19/1 18/250/1 17/20/1
f 9/22/1 19/251/1 18/23/1
f 10/25/1 20/252/1 19/26/1
f 12/28/1 22/253/1 21/29/1
f 13/31/1 23/254/1 22/32/1
f 14/34/1 24/255/1 23/35/1
f 15/37/1 25/256/1 24/38/1
f 16/40/1 26/257/1 25/41/1
f 17/43/1 27/258/1 26/44/1
f 18/46/1 28/259/1 27/47/1
f 19/49/1 29/260/1 28/50/1
f 20/52/1 30/261/1 29/53/1
f 22/55/1 32/262/1 31/56/1
f 23/58/1 33/263/1 32/59/1
f 24/61/1 34/264/1 33/62/1
f 25/64/1 35/265/1 34/65/1
f 26/67/1 36/266/1 35/68/1
f 27/70/1 37/267/1 36/71/1
f 28/73/1 38/268/1 37/74/1
f 29/76/1 39/269/1 38/77/1
f 30/79/1 40/270/1 39/80/1
f 32/82/1 42/271/1 41/83/1
f 33/85/1 43/272/1 42/86/1
f 34/88/1 44/273/1 43/89/1
f 35/91/1 45/274/1 44/92/1
f 36/94/1 46/275/1 45/95/1
f 37/97/1 47/276/1 46/98/1
f 38/100/1 48/277/1 47/101/1
f 39/103/1 49/278/1 48/104/1
f 40/106/1 50/279/1 49/107/1
f 42/109/1 52/280/1 51/110/1
f 43/112/1 53/281/1 52/113/1
f 44/115/1 54/282/1 53/116/1
f 45/118/1 55/283/1 54/119/1
f 46/121/1 56/284/1 55/122/1
f 47/124/1 57/285/1 56/125/1
f 48/127/1 58/286/1 57/128/1
f 49/130/1 59/287/1 58/131/1
f 50/133/1 60/288/1 59/134/1
f 52/136/1 62/289/1 61/137/1
f 53/139/1 63/290/1 62/140/1
f 54/142/1 64/291/1 63/143/1
f 55/145/1 65/292/1 64/146/1
f 56/148/1 66/293/1 65/149/1
f 57/151/1 67/294/1 66/152/1
f 58/154/1 68/295/1 67/155/1
f 59/157/1 69/296/1 68/158/1
f 60/160/1 70/297/1 69/161/1
f 62/163/1 72/298/1 71/164/1
f 63/166/1 73/299/1 72/167/1
f 64/169/1 74/300/1 73/170/1
f 65/172/1 75/301/1 74/173/1
f 66/175/1 76/302/1 75/176/1
f 67/178/1 77/303/1 76/179/1
f 68/181/1 78/304/1 77/182/1
f 69/184/1 79/305/1 78/185/1
f 70/187/1 80/306/1 79/188/1
f 72/190/1 82/307/1 81/191/1
f 73/193/1 83/308/1 82/194/1
f 74/196/1 84/309/1 83/197/1
f 75/199/1 85/310/1 84/200/1
f 76/202/1 86/311/1 85/203/1
f 77/205/1 87/312/1 86/206/1
f 78/208/1 88/313/1 87/209/1
f 79/211/1 89/314/1 88/212/1
f 80/214/1 90/315/1 89/215/1
f 82/217/1 92/316/1 91/218/1
f 83/220/1 93/317/1 92/221/1
f 84/223/1 94/318/1 93/224/1
f 85/226/1 95/319/1 94/227/1
f 86/229/1 96/320/1 95/230/1
f 87/232/1 97/321/1 96/233/1
f 88/235/1 98/322/1 97/236/1
f 89/238/1 99/323/1 98/239/1
f 90/241/1 100/324/1 99/242/1
