# Blender v2.78 (sub 0) OBJ File: 'Rock1.blend'
# www.blender.org
o Icosphere
v 0.185393 1.916087 -0.505464
v 0.502559 2.012972 -0.025947
v -0.407431 2.114957 -0.287381
v -0.381904 2.300573 0.253590
v 0.222407 2.171253 0.465054
v 0.707424 1.216812 -0.074528
v 0.300190 1.072106 -0.829226
v -0.675961 1.274923 -0.480093
v -0.650434 1.467542 0.484960
v 0.337205 1.330941 0.827475
v 0.551924 0.684805 -0.629084
v -0.227150 0.613596 -0.823184
v -0.897623 0.850752 -0.000000
v -0.201623 0.809884 0.828051
v 0.563411 0.758025 0.486647
v 0.376514 0.081154 -0.431845
v -0.096881 0.037280 -0.575976
v -0.480208 0.048230 -0.020844
v -0.096881 0.047953 0.534287
v 0.376514 0.084823 0.254338
v -0.103935 2.030984 -0.413747
v 0.352821 2.022511 -0.310912
v 0.267078 1.505306 -0.698274
v 0.686052 1.635432 -0.030083
v 0.370690 2.136414 0.253878
v -0.461118 2.284389 -0.022945
v -0.569784 1.743502 -0.392908
v -0.069155 2.272753 0.369853
v -0.537875 1.967800 0.389327
v 0.313346 1.810156 0.686420
v 0.649319 0.947135 -0.390397
v 0.660806 1.010215 0.210696
v 0.055932 0.838753 -0.871460
v 0.479960 0.878658 -0.785458
v -0.858578 1.110518 -0.279053
v -0.475601 0.898266 -0.685889
v -0.443693 1.128967 0.691972
v -0.852196 1.167744 0.280270
v 0.500701 1.018638 0.744447
v 0.090713 1.089127 0.875889
v 0.458582 0.327182 -0.573483
v -0.209582 0.269841 -0.766139
v -0.760528 0.345426 -0.005211
v -0.203200 0.335672 0.756933
v 0.461453 0.353259 0.391633
v 0.205283 0.033937 -0.524907
v 0.391182 0.075273 -0.110942
v -0.296394 0.027600 -0.323869
v -0.296394 0.034004 0.271758
v 0.205283 0.042542 0.438842
v -0.001172 2.304376 -0.039009
v 0.599690 1.449249 -0.533549
v -0.166073 1.431012 -0.694613
v -0.815630 1.794304 -0.002892
v -0.112721 1.762122 0.695292
v 0.625473 1.595286 0.485067
v 0.249381 0.383278 -0.843569
v -0.653852 0.433311 -0.508070
v -0.648747 0.493181 0.500706
v 0.256784 0.463728 0.807717
v 0.551602 0.472895 -0.141311
v 0.119733 -0.045941 -0.055271
vt 0.6827 0.2330
vt 0.6123 0.3491
vt 0.6791 0.3207
vt 0.7216 0.3606
vt 0.2516 0.4580
vt 0.2774 0.5780
vt 0.2057 0.5303
vt 0.5073 0.4152
vt 0.5237 0.3644
vt 0.5751 0.2273
vt 0.4632 0.3029
vt 0.6786 0.1381
vt 0.1935 0.6711
vt 0.1623 0.6080
vt 0.7216 0.1031
vt 0.6147 0.0995
vt 0.5349 0.0962
vt 0.5144 0.0410
vt 0.4748 0.1716
vt 0.4222 0.2430
vt 0.3940 0.1301
vt 0.3557 0.2480
vt 0.4143 0.6800
vt 0.3800 0.8063
vt 0.3557 0.6669
vt 0.4444 0.6015
vt 0.5186 0.6998
vt 0.4511 0.7677
vt 0.0735 0.6674
vt 0.1618 0.7363
vt 0.1003 0.7409
vt 0.0689 0.7908
vt 0.0051 0.7182
vt 0.9428 0.1026
vt 0.9800 0.1893
vt 0.9997 0.1220
vt 0.3140 0.6892
vt 0.2434 0.7240
vt 0.9997 0.0035
vt 0.6756 0.5545
vt 0.7841 0.5010
vt 0.7083 0.4851
vt 0.7673 0.2039
vt 0.8395 0.2952
vt 0.8395 0.2247
vt 0.5751 0.5168
vt 0.3435 0.4571
vt 0.3435 0.5694
vt 0.3145 0.4972
vt 0.2862 0.7305
vt 0.2114 0.8246
vt 0.2862 0.7981
vt 0.7549 0.7691
vt 0.6310 0.7741
vt 0.7230 0.8254
vt 0.4870 0.8342
vt 0.5375 0.8195
vt 0.3375 0.5699
vt 0.3375 0.6477
vt 0.3145 0.6222
vt 0.0488 0.5828
vt 0.1618 0.6100
vt 0.0003 0.5839
vt 0.0946 0.5141
vt 0.8635 0.0712
vt 0.8729 0.2034
vt 0.8603 0.0003
vt 0.7891 0.1207
vt 0.6480 0.6332
vt 0.7841 0.6279
vt 0.5830 0.6479
vt 0.7055 0.7071
vt 0.4809 0.5258
vt 0.3632 0.5246
vt 0.4452 0.4540
vt 0.5234 0.4376
vt 0.5374 0.5528
vt 0.2815 0.0883
vt 0.3552 0.0751
vt 0.3312 0.1141
vt 0.5726 0.7808
vt 0.5746 0.6921
vt 0.3352 0.2028
vt 0.1355 0.1434
vt 0.1611 0.0212
vt 0.1937 0.0739
vt 0.2946 0.0003
vt 0.1350 0.3080
vt 0.0003 0.2310
vt 0.0818 0.2269
vt 0.0317 0.0921
vt 0.1927 0.3807
vt 0.2953 0.4566
vt 0.1616 0.4421
vt 0.2807 0.3546
vt 0.5746 0.5912
vt 0.3552 0.3418
vt 0.3306 0.3038
vt 0.2562 0.2180
vt 0.6469 0.4371
vt 0.3140 0.4571
vt 0.3785 0.3519
vt 0.6432 0.0003
vt 0.1459 0.8321
vt 0.1522 0.4604
vt 0.0338 0.4571
vt 0.7221 0.3054
vt 0.6539 0.4376
vt 0.7904 0.3059
vt 0.7221 0.3627
vt 0.7904 0.4297
vt 0.1623 0.7245
vt 0.4592 0.8770
vt 0.8556 0.4376
vt 0.8556 0.5126
vt 0.7847 0.5040
vt 0.7221 0.0301
vt 0.0323 0.3709
vn 0.1426 0.8115 -0.5667
vn 0.5456 0.4425 -0.7116
vn -0.1127 0.4308 -0.8954
vn 0.8163 0.4013 -0.4155
vn 0.4984 0.8552 -0.1424
vn 0.8770 0.4238 0.2264
vn -0.0197 0.8103 -0.5857
vn -0.2681 0.3699 -0.8896
vn -0.7637 0.4619 -0.4510
vn -0.0450 0.9980 -0.0455
vn -0.8479 0.4849 0.2145
vn -0.2706 0.4696 0.8404
vn 0.3102 0.9487 0.0613
vn -0.0402 0.5148 0.8563
vn 0.7573 0.4692 0.4543
vn 0.9785 0.0705 -0.1939
vn 0.9827 0.0308 0.1829
vn 0.9788 -0.2045 -0.0054
vn -0.1031 0.2806 -0.9543
vn 0.5049 0.2849 -0.8148
vn 0.1624 0.0086 -0.9867
vn -0.8133 0.2793 -0.5104
vn -0.4147 0.2564 -0.8731
vn -0.7414 0.0028 -0.6711
vn -0.4336 0.2624 0.8621
vn -0.8553 0.2762 0.4384
vn -0.6990 0.0103 0.7150
vn 0.7445 0.2224 0.6295
vn -0.0843 0.2775 0.9570
vn 0.3664 -0.0551 0.9288
vn 0.9305 -0.0124 -0.3661
vn 0.9589 -0.2657 -0.0992
vn 0.6880 -0.2834 -0.6680
vn -0.2955 0.1699 -0.9401
vn -0.0365 -0.1654 -0.9855
vn -0.6114 -0.1599 -0.7750
vn -0.9945 0.0862 -0.0589
vn -0.9044 -0.2417 -0.3516
vn -0.8766 -0.2421 0.4159
vn -0.3152 0.1598 0.9355
vn -0.5992 -0.1168 0.7920
vn -0.0202 -0.1482 0.9887
vn 0.9508 -0.0699 0.3019
vn 0.8142 -0.3190 0.4852
vn 0.9595 -0.2645 0.0970
vn 0.5107 -0.5505 -0.6604
vn 0.9249 -0.3769 -0.0492
vn 0.2810 -0.9592 -0.0304
vn -0.5712 -0.6674 -0.4777
vn 0.1153 -0.6773 -0.7266
vn -0.0040 -0.9991 -0.0416
vn -0.6615 -0.6441 0.3842
vn -0.6275 -0.7039 -0.3327
vn -0.0941 -0.9955 0.0107
vn 0.0764 -0.5924 0.8020
vn -0.6133 -0.6125 0.4987
vn -0.0009 -0.9986 0.0537
vn 0.9373 -0.3388 0.0825
vn 0.6921 -0.4901 0.5300
vn 0.4143 -0.9092 0.0404
vn 0.1516 0.7783 -0.6094
vn 0.4523 0.4854 -0.7482
vn -0.0781 0.4108 -0.9084
vn 0.8202 0.4763 -0.3168
vn 0.4917 0.8397 -0.2303
vn 0.8717 0.4699 0.1391
vn -0.0554 0.8356 -0.5466
vn -0.3032 0.4296 -0.8506
vn -0.7069 0.4905 -0.5095
vn 0.0564 0.9947 0.0863
vn -0.7689 0.5682 0.2932
vn -0.3117 0.5294 0.7890
vn 0.3240 0.9376 0.1264
vn -0.0851 0.5407 0.8369
vn 0.6862 0.5341 0.4938
vn 0.9768 0.0364 -0.2108
vn 0.9931 0.0050 0.1172
vn 0.9785 -0.2059 0.0108
vn -0.0539 0.2671 -0.9622
vn 0.4635 0.2747 -0.8424
vn 0.2392 0.0026 -0.9710
vn -0.7990 0.2677 -0.5385
vn -0.4499 0.2473 -0.8582
vn -0.7123 0.0046 -0.7019
vn -0.4837 0.2485 0.8392
vn -0.8383 0.2644 0.4767
vn -0.7194 0.0100 0.6945
vn 0.6258 0.2033 0.7530
vn -0.0088 0.2567 0.9665
vn 0.2338 -0.0438 0.9713
vn 0.9066 -0.0039 -0.4220
vn 0.9583 -0.2598 -0.1187
vn 0.7338 -0.2683 -0.6241
vn -0.3197 0.1705 -0.9320
vn -0.1367 -0.1183 -0.9835
vn -0.5308 -0.1175 -0.8393
vn -0.9942 0.0866 0.0632
vn -0.9492 -0.2066 -0.2375
vn -0.9435 -0.1976 0.2662
vn -0.3059 0.1594 0.9386
vn -0.5198 -0.0880 0.8498
vn -0.0737 -0.1274 0.9891
vn 0.9591 -0.0706 0.2740
vn 0.8120 -0.2999 0.5007
vn 0.9593 -0.2627 0.1033
vn 0.5743 -0.5901 -0.5674
vn 0.9308 -0.3566 -0.0801
vn 0.3918 -0.9162 -0.0845
vn -0.5358 -0.6918 -0.4841
vn 0.0232 -0.6261 -0.7794
vn -0.0588 -0.9823 -0.1778
vn -0.6556 -0.6734 0.3415
vn -0.7084 -0.6543 -0.2646
vn -0.1806 -0.9835 0.0106
vn 0.2160 -0.6581 0.7213
vn -0.5341 -0.6681 0.5180
vn -0.0444 -0.9820 0.1835
vn 0.9276 -0.3706 0.0469
vn 0.7096 -0.5113 0.4848
vn 0.3456 -0.9322 0.1071
s off
f 21/1/1 22/2/1 1/3/1
f 22/2/2 23/4/2 1/3/2
f 1/5/3 53/6/3 21/7/3
f 24/8/4 22/2/4 2/9/4
f 2/9/5 51/10/5 25/11/5
f 25/11/6 24/8/6 2/9/6
f 3/12/7 51/10/7 21/1/7
f 21/7/8 27/13/8 3/14/8
f 27/15/9 26/16/9 3/12/9
f 4/17/10 51/10/10 26/16/10
f 26/16/11 29/18/11 4/17/11
f 29/18/12 28/19/12 4/17/12
f 25/11/13 28/19/13 5/20/13
f 5/20/14 55/21/14 30/22/14
f 30/22/15 25/11/15 5/20/15
f 6/23/16 52/24/16 24/25/16
f 24/25/17 32/26/17 6/23/17
f 6/23/18 61/27/18 31/28/18
f 33/29/19 23/30/19 7/31/19
f 23/30/20 34/32/20 7/31/20
f 7/31/21 57/33/21 33/29/21
f 35/34/22 27/35/22 8/36/22
f 27/13/23 36/37/23 8/38/23
f 8/36/24 58/39/24 35/34/24
f 37/40/25 29/41/25 9/42/25
f 29/43/26 38/44/26 9/45/26
f 9/42/27 59/46/27 37/40/27
f 39/47/28 30/48/28 10/49/28
f 30/50/29 40/51/29 10/52/29
f 10/53/30 60/54/30 39/55/30
f 11/56/31 52/24/31 31/28/31
f 31/28/32 41/57/32 11/56/32
f 41/58/33 34/59/33 11/60/33
f 12/61/34 53/62/34 33/29/34
f 33/29/35 42/63/35 12/61/35
f 42/63/36 36/64/36 12/61/36
f 13/65/37 54/66/37 35/34/37
f 35/34/38 43/67/38 13/65/38
f 43/67/39 38/68/39 13/65/39
f 14/69/40 55/70/40 37/40/40
f 37/40/41 44/71/41 14/69/41
f 44/71/42 40/72/42 14/69/42
f 15/73/43 56/74/43 39/75/43
f 15/73/44 60/76/44 45/77/44
f 45/77/45 32/26/45 15/73/45
f 46/78/46 41/79/46 16/80/46
f 16/81/47 61/27/47 47/82/47
f 47/83/48 46/78/48 16/80/48
f 48/84/49 42/85/49 17/86/49
f 17/86/50 57/87/50 46/78/50
f 46/78/51 48/84/51 17/86/51
f 49/88/52 43/89/52 18/90/52
f 18/90/53 58/91/53 48/84/53
f 48/84/54 49/88/54 18/90/54
f 19/92/55 60/93/55 44/94/55
f 44/94/56 49/88/56 19/92/56
f 49/88/57 50/95/57 19/92/57
f 20/96/58 61/27/58 45/77/58
f 45/97/59 50/95/59 20/98/59
f 20/98/60 62/99/60 47/83/60
f 21/1/61 51/10/61 22/2/61
f 22/2/62 52/100/62 23/4/62
f 1/5/63 23/101/63 53/6/63
f 24/8/64 52/100/64 22/2/64
f 2/9/65 22/2/65 51/10/65
f 25/11/66 56/102/66 24/8/66
f 3/12/67 26/16/67 51/10/67
f 21/7/68 53/6/68 27/13/68
f 27/15/69 54/103/69 26/16/69
f 4/17/70 28/19/70 51/10/70
f 26/16/71 54/103/71 29/18/71
f 29/18/72 55/21/72 28/19/72
f 25/11/73 51/10/73 28/19/73
f 5/20/74 28/19/74 55/21/74
f 30/22/75 56/102/75 25/11/75
f 6/23/76 31/28/76 52/24/76
f 24/25/77 56/74/77 32/26/77
f 6/23/78 32/26/78 61/27/78
f 33/29/79 53/62/79 23/30/79
f 23/30/80 52/104/80 34/32/80
f 7/31/81 34/32/81 57/33/81
f 35/34/82 54/66/82 27/35/82
f 27/13/83 53/6/83 36/37/83
f 8/105/84 36/64/84 58/106/84
f 37/40/85 55/70/85 29/41/85
f 29/43/86 54/107/86 38/44/86
f 9/42/87 38/108/87 59/46/87
f 39/109/88 56/110/88 30/111/88
f 30/50/89 55/112/89 40/51/89
f 10/53/90 40/72/90 60/54/90
f 11/56/91 34/113/91 52/24/91
f 31/28/92 61/27/92 41/57/92
f 41/114/93 57/115/93 34/116/93
f 12/61/94 36/64/94 53/62/94
f 33/29/95 57/33/95 42/63/95
f 42/63/96 58/106/96 36/64/96
f 13/65/97 38/68/97 54/66/97
f 35/34/98 58/39/98 43/67/98
f 43/67/99 59/117/99 38/68/99
f 14/69/100 40/72/100 55/70/100
f 37/40/101 59/46/101 44/71/101
f 44/71/102 60/54/102 40/72/102
f 15/73/103 32/26/103 56/74/103
f 15/73/104 39/75/104 60/76/104
f 45/77/105 61/27/105 32/26/105
f 46/78/106 57/87/106 41/79/106
f 16/81/107 41/57/107 61/27/107
f 47/83/108 62/99/108 46/78/108
f 48/84/109 58/91/109 42/85/109
f 17/86/110 42/85/110 57/87/110
f 46/78/111 62/99/111 48/84/111
f 49/88/112 59/118/112 43/89/112
f 18/90/113 43/89/113 58/91/113
f 48/84/114 62/99/114 49/88/114
f 19/92/115 50/95/115 60/93/115
f 44/94/116 59/118/116 49/88/116
f 49/88/117 62/99/117 50/95/117
f 20/96/118 47/82/118 61/27/118
f 45/97/119 60/93/119 50/95/119
f 20/98/120 50/95/120 62/99/120
