# Blender v2.76 (sub 0) OBJ File: ''
# www.blender.org
o Cylinder
v 0.000000 -0.500000 -1.000000
v 0.000000 0.500000 -1.000000
v 0.500000 -0.500000 -0.866025
v 0.500000 0.500000 -0.866025
v 0.866025 -0.500000 -0.500000
v 0.866025 0.500000 -0.500000
v 1.000000 -0.500000 0.000000
v 1.000000 0.500000 0.000000
v 0.866025 -0.500000 0.500000
v 0.866025 0.500000 0.500000
v 0.500000 -0.500000 0.866025
v 0.500000 0.500000 0.866025
v 0.000000 -0.500000 1.000000
v 0.000000 0.500000 1.000000
v -0.500000 -0.500000 0.866026
v -0.500000 0.500000 0.866026
v -0.866025 -0.500000 0.500000
v -0.866025 0.500000 0.500000
v -1.000000 -0.500000 0.000000
v -1.000000 0.500000 0.000000
v -0.866026 -0.500000 -0.499999
v -0.866026 0.500000 -0.499999
v -0.500001 -0.500000 -0.866025
v -0.500001 0.500000 -0.866025
vt 0.698918 0.250213
vt 0.574130 0.250213
vt 0.574130 0.499787
vt 0.482779 0.250213
vt 0.482779 0.499787
vt 0.482779 0.750213
vt 0.607567 0.750213
vt 0.607567 0.999787
vt 0.732354 0.750213
vt 0.732354 0.999787
vt 0.482779 0.000213
vt 0.574130 0.000213
vt 0.574130 0.249787
vt 0.698918 0.000213
vt 0.698918 0.249787
vt 0.823705 0.000213
vt 0.823705 0.249787
vt 0.915056 0.000213
vt 0.915056 0.249787
vt 0.823705 0.500213
vt 0.698918 0.500213
vt 0.698918 0.749787
vt 0.574130 0.500213
vt 0.574130 0.749787
vt 0.417760 0.064807
vt 0.305878 0.482354
vt 0.000213 0.176689
vt 0.823705 0.250213
vt 0.698918 0.499787
vt 0.482779 0.500213
vt 0.482779 0.749787
vt 0.482354 0.788445
vt 0.000213 0.659255
vt 0.064807 0.900326
vt 0.482779 0.999787
vt 0.482779 0.249787
vt 0.823705 0.749787
vt 0.064807 0.064807
vt 0.176689 0.000213
vt 0.305878 0.000213
vt 0.482354 0.176689
vt 0.482354 0.305878
vt 0.417760 0.417759
vt 0.176689 0.482354
vt 0.064807 0.417760
vt 0.000213 0.305878
vt 0.823705 0.499787
vt 0.176689 0.964921
vt 0.305878 0.964921
vt 0.417760 0.900326
vt 0.482354 0.659255
vt 0.417759 0.547374
vt 0.305878 0.482779
vt 0.176689 0.482779
vt 0.064807 0.547374
vt 0.000213 0.788445
vn 0.258800 0.000000 -0.965900
vn 0.707100 0.000000 -0.707100
vn 0.965900 0.000000 -0.258800
vn 0.965900 0.000000 0.258800
vn 0.707100 0.000000 0.707100
vn 0.258800 0.000000 0.965900
vn -0.258800 0.000000 0.965900
vn -0.707100 0.000000 0.707100
vn -0.965900 0.000000 0.258800
vn -0.965900 0.000000 -0.258800
vn 0.000000 1.000000 0.000000
vn -0.258800 0.000000 -0.965900
vn -0.707100 0.000000 -0.707100
vn 0.000000 -1.000000 0.000000
s off
f 2/1/1 4/2/1 3/3/1
f 4/2/2 6/4/2 5/5/2
f 6/6/3 8/7/3 7/8/3
f 8/7/4 10/9/4 9/10/4
f 10/11/5 12/12/5 11/13/5
f 12/12/6 14/14/6 13/15/6
f 14/14/7 16/16/7 15/17/7
f 16/16/8 18/18/8 17/19/8
f 18/20/9 20/21/9 19/22/9
f 20/21/10 22/23/10 21/24/10
f 22/25/11 14/26/11 6/27/11
f 24/28/12 2/1/12 1/29/12
f 22/23/13 24/30/13 23/31/13
f 7/32/14 19/33/14 23/34/14
f 1/29/1 2/1/1 3/3/1
f 3/3/2 4/2/2 5/5/2
f 5/35/3 6/6/3 7/8/3
f 7/8/4 8/7/4 9/10/4
f 9/36/5 10/11/5 11/13/5
f 11/13/6 12/12/6 13/15/6
f 13/15/7 14/14/7 15/17/7
f 15/17/8 16/16/8 17/19/8
f 17/37/9 18/20/9 19/22/9
f 19/22/10 20/21/10 21/24/10
f 6/27/11 4/38/11 2/39/11
f 2/39/11 24/40/11 22/25/11
f 22/25/11 20/41/11 18/42/11
f 18/42/11 16/43/11 14/26/11
f 14/26/11 12/44/11 10/45/11
f 10/45/11 8/46/11 6/27/11
f 6/27/11 2/39/11 22/25/11
f 22/25/11 18/42/11 14/26/11
f 14/26/11 10/45/11 6/27/11
f 23/47/12 24/28/12 1/29/12
f 21/24/13 22/23/13 23/31/13
f 23/34/14 1/48/14 3/49/14
f 3/49/14 5/50/14 7/32/14
f 7/32/14 9/51/14 11/52/14
f 11/52/14 13/53/14 15/54/14
f 15/54/14 17/55/14 19/33/14
f 19/33/14 21/56/14 23/34/14
f 23/34/14 3/49/14 7/32/14
f 7/32/14 11/52/14 15/54/14
f 15/54/14 19/33/14 7/32/14
