# Blender v2.77 (sub 0) OBJ File: 'Tree1.blend'
# www.blender.org
o Cylinder
v 0.661971 2.541826 -2.440196
v 0.197663 5.428863 -3.854773
v -0.315845 2.362978 -2.474903
v -0.951632 2.221594 -3.203579
v -1.574281 2.527430 -3.758420
v -1.329870 2.729391 -4.721766
v -0.877805 2.528826 -5.508172
v 0.209317 2.630390 -5.493974
v 1.032106 2.362199 -5.065831
v 1.583238 2.460852 -4.227774
v 1.294991 2.260859 -3.282927
v -0.025962 2.815714 -3.970331
v 0.367484 3.388187 -3.258324
v -0.099099 3.424981 -3.187436
v -0.441047 3.469294 -3.527762
v -0.726845 3.507015 -3.827693
v -0.573867 3.520494 -4.428555
v -0.306626 3.602531 -4.629285
v 0.155303 3.469981 -4.697350
v 0.568236 3.272937 -4.491704
v 0.783050 3.387947 -4.057092
v 0.697716 3.182705 -3.592637
v 1.244695 3.647896 -4.813353
v 0.068408 6.174293 -4.128264
v 1.421542 3.496377 -3.966038
v 0.930853 3.362264 -3.268346
v 0.577640 3.626361 -2.619209
v -0.304205 3.784641 -2.629473
v -1.069136 3.589253 -2.853763
v -1.284725 3.671328 -3.790477
v -1.082597 3.436615 -4.585248
v -0.479566 3.535684 -5.232861
v 0.395460 3.379108 -5.181117
v 0.068408 3.865700 -3.905459
v 0.586399 4.382010 -4.392710
v 0.743392 4.419246 -4.006881
v 0.521334 4.454397 -3.642667
v 0.322428 4.484087 -3.335042
v -0.225437 4.483453 -3.341610
v -0.454907 4.550151 -3.529599
v -0.606576 4.428426 -3.911769
v -0.511793 4.255301 -4.308563
v -0.185612 4.363585 -4.583609
v 0.234978 4.191763 -4.606291
v -1.014669 4.705758 -3.854069
v 0.068408 6.486627 -4.062425
v -0.826205 4.524144 -4.441957
v -0.243068 4.617282 -4.662177
v 0.218958 4.493647 -4.965614
v 0.682058 4.434892 -4.550845
v 1.036339 4.503881 -4.202946
v 0.952640 4.662764 -3.546785
v 0.367613 4.574162 -3.222099
v -0.153311 4.679039 -3.079679
v -0.410329 4.753184 -3.376762
v 0.068409 4.794919 -3.997763
v -0.419134 5.174807 -3.961744
v -0.372673 5.275460 -4.235513
v -0.096702 5.189831 -4.450218
v 0.114965 5.142169 -4.507272
v 0.433861 5.323187 -4.279204
v 0.572553 5.216376 -4.119211
v 0.509490 5.212404 -3.791279
v 0.311436 5.077402 -3.569789
v -0.006690 5.222560 -3.525570
v -0.283248 5.194155 -3.660006
v 0.093023 5.485745 -4.774854
v 0.068408 6.770115 -4.125605
v 0.468318 5.385633 -4.566583
v 0.571648 5.318087 -4.151488
v 0.715476 5.446546 -3.808352
v 0.432803 5.553046 -3.475629
v 0.093023 5.483850 -3.253795
v -0.331502 5.552417 -3.475578
v -0.578659 5.446546 -3.808352
v -0.627888 5.491995 -4.249896
v -0.331501 5.385633 -4.566584
v 0.068408 5.610588 -4.032453
v 0.068408 5.863743 -4.393272
v 0.267895 5.868934 -4.328663
v 0.336718 5.885217 -4.125974
v 0.391185 5.899319 -3.950434
v 0.211845 5.915992 -3.742886
v 0.068408 5.960597 -3.716591
v -0.131079 5.912908 -3.781285
v -0.258515 5.832261 -3.944570
v -0.254369 5.882522 -4.159514
v -0.133642 5.784166 -4.326267
v 0.000000 -0.043354 -4.232388
v 0.050790 4.874431 -3.993709
v 0.221014 -0.043354 -4.071812
v 0.136594 -0.043354 -3.811995
v -0.136594 -0.043354 -3.811995
v -0.221014 -0.043354 -4.071812
v 0.007890 0.635559 -4.179077
v 0.189174 0.575267 -4.059035
v 0.113515 0.635559 -3.853997
v -0.103351 0.575267 -3.846503
v -0.131335 0.464456 -4.062612
v 0.086942 2.817307 -3.889300
v -0.024793 2.817307 -3.920400
v 0.031074 2.817307 -4.092342
v 0.060952 1.590500 -4.088624
v 0.333467 1.759651 -4.434527
v 0.090094 1.616367 -4.067153
v 0.075942 1.658220 -4.070490
v 0.038053 1.658220 -4.094024
v 0.028789 1.616367 -4.105231
v 0.145486 1.708936 -4.309745
v 0.126541 1.708936 -4.321512
v 0.137990 1.675075 -4.318811
v 0.152562 1.688009 -4.308076
v 0.121909 1.688009 -4.327115
v -0.029584 2.437380 -4.022950
v -0.195960 2.328086 -4.381439
v -0.004090 2.412141 -4.037394
v 0.018033 2.431019 -4.062644
v 0.006212 2.467926 -4.063804
v -0.023217 2.471857 -4.039271
v -0.121095 2.442399 -4.234004
v -0.127006 2.460852 -4.234584
v -0.144904 2.445579 -4.214156
v -0.132157 2.432960 -4.221379
v -0.141720 2.462818 -4.222317
v 0.136434 1.012553 -4.004720
v 0.331787 1.079601 -3.649178
v 0.117131 0.987314 -3.982675
v 0.104575 1.006192 -3.951541
v 0.116117 1.043099 -3.954345
v 0.135807 1.047030 -3.987211
v 0.292438 1.017571 -3.835661
v 0.298209 1.036025 -3.837063
v 0.308368 1.020752 -3.862251
v 0.298717 1.008132 -3.851228
v 0.308055 1.037990 -3.853497
v 0.017697 1.242403 -3.959474
v -0.380721 1.384885 -3.772702
v 0.000899 1.208344 -3.995270
v -0.030785 1.233819 -4.027649
v -0.033569 1.283624 -4.011864
v -0.003605 1.288929 -3.969729
v -0.275743 1.249176 -3.858180
v -0.277135 1.274078 -3.850287
v -0.251502 1.253468 -3.824092
v -0.259901 1.236438 -3.841990
v -0.262153 1.276731 -3.829220
vt 0.1245 0.7124
vt 0.2762 0.6503
vt 0.1469 0.7534
vt 0.1844 0.7832
vt 0.2166 0.8085
vt 0.2782 0.8223
vt 0.3099 0.8104
vt 0.3569 0.7997
vt 0.3990 0.7765
vt 0.4182 0.7323
vt 0.5935 0.7600
vt 0.7565 0.7724
vt 0.6138 0.8673
vt 0.4400 0.6923
vt 0.1087 0.6699
vt 0.8979 0.8895
vt 0.9251 0.7759
vt 0.0278 0.7439
vt 0.0242 0.6503
vt 0.5123 0.7705
vt 0.5259 0.6852
vt 0.4694 0.8417
vt 0.4040 0.8848
vt 0.3322 0.9355
vt 0.2599 0.9164
vt 0.1788 0.9101
vt 0.1207 0.8703
vt 0.0618 0.8171
vt 0.9036 0.6695
vt 0.7016 0.9015
vt 0.8111 0.6115
vt 0.8013 0.9363
vt 0.7079 0.6115
vt 0.6002 0.6603
vt 0.3920 0.7642
vt 0.2765 0.6507
vt 0.4155 0.7259
vt 0.4212 0.6822
vt 0.1297 0.6731
vt 0.1295 0.7105
vt 0.1566 0.7621
vt 0.1848 0.7778
vt 0.2223 0.8053
vt 0.2667 0.8220
vt 0.3132 0.8094
vt 0.6105 0.8563
vt 0.7611 0.7702
vt 0.6922 0.9387
vt 0.3613 0.8012
vt 0.9553 0.7894
vt 0.9118 0.6734
vt 0.4725 0.8240
vt 0.4083 0.8785
vt 0.3360 0.9075
vt 0.2584 0.9149
vt 0.1880 0.8925
vt 0.1059 0.8707
vt 0.0754 0.8053
vt 0.0306 0.7368
vt 0.0306 0.6660
vt 0.5188 0.6783
vt 0.5121 0.7556
vt 0.8295 0.5925
vt 0.7899 0.9167
vt 0.7138 0.5965
vt 0.8983 0.8880
vt 0.6228 0.6578
vt 0.5572 0.7648
vt 0.2264 0.8216
vt 0.2748 0.6622
vt 0.2693 0.8163
vt 0.3231 0.8137
vt 0.3547 0.8065
vt 0.3846 0.7530
vt 0.4130 0.7382
vt 0.4267 0.6940
vt 0.1200 0.6888
vt 0.1151 0.7324
vt 0.1502 0.7663
vt 0.8633 0.6475
vt 0.7587 0.7756
vt 0.7625 0.5849
vt 0.1812 0.8002
vt 0.5589 0.8300
vt 0.6852 0.9044
vt 0.1325 0.8436
vt 0.1957 0.9182
vt 0.0852 0.8266
vt 0.0521 0.7664
vt 0.0318 0.6809
vt 0.5144 0.6942
vt 0.5041 0.7796
vt 0.4634 0.8287
vt 0.4103 0.8858
vt 0.3398 0.8845
vt 0.2743 0.9264
vt 0.7421 0.9544
vt 0.6831 0.6564
vt 0.8384 0.9151
vt 0.5767 0.7106
vt 0.9381 0.8346
vt 0.9381 0.7063
vt 0.3208 0.8055
vt 0.2767 0.6520
vt 0.3608 0.7835
vt 0.3903 0.7490
vt 0.4143 0.7208
vt 0.4255 0.6683
vt 0.1283 0.6913
vt 0.1411 0.7181
vt 0.1575 0.7588
vt 0.1859 0.7948
vt 0.2312 0.8065
vt 0.5691 0.7557
vt 0.7569 0.7710
vt 0.5923 0.8791
vt 0.2760 0.8225
vt 0.9198 0.9062
vt 0.9521 0.7747
vt 0.3566 0.8973
vt 0.2759 0.9117
vt 0.2009 0.9015
vt 0.1315 0.8689
vt 0.0844 0.8132
vt 0.0297 0.7478
vt 0.0451 0.6772
vt 0.5071 0.6711
vt 0.5071 0.7493
vt 0.4709 0.8067
vt 0.4227 0.8623
vt 0.9275 0.6524
vt 0.6939 0.9184
vt 0.8213 0.5849
vt 0.8086 0.9593
vt 0.7019 0.5849
vt 0.5776 0.6403
vt 0.9111 0.4134
vt 0.1501 0.4474
vt 0.5490 0.4058
vt 0.5502 0.4602
vt 0.1665 0.4947
vt 0.1773 0.2615
vt 0.5572 0.3376
vt 0.1557 0.3066
vt 0.5528 0.3627
vt 0.1285 0.3534
vt 0.8476 0.2917
vt 0.7614 0.3543
vt 0.7410 0.2917
vt 0.0349 0.3989
vt 0.0349 0.3401
vt 0.0470 0.2825
vt 0.0632 0.2251
vt 0.0394 0.4586
vt 0.0478 0.5187
vt 0.1589 0.3968
vt 0.7943 0.2530
vt 0.8272 0.3543
vt 0.4752 0.4360
vt 0.0478 0.5187
vt 0.0394 0.4586
vt 0.4752 0.4360
vt 0.0478 0.5187
vt 0.0394 0.4586
vt 0.0349 0.3989
vt 0.7943 0.2530
vt 0.8272 0.3543
vt 0.7614 0.3543
vt 0.4730 0.4062
vt 0.9111 0.4134
vt 0.8260 0.3525
vt 0.7410 0.2917
vt 0.8362 0.3838
vt 0.4790 0.3479
vt 0.4871 0.3192
vt 0.0470 0.2825
vt 0.0632 0.2251
vt 0.4794 0.4661
vt 0.0349 0.3989
vt 0.7943 0.2530
vt 0.8272 0.3543
vt 0.7614 0.3543
vt 0.4730 0.4062
vt 0.9111 0.4134
vt 0.8260 0.3525
vt 0.7410 0.2917
vt 0.8362 0.3838
vt 0.4790 0.3479
vt 0.4871 0.3192
vt 0.0470 0.2825
vt 0.0632 0.2251
vt 0.4794 0.4661
vt 0.4752 0.4360
vt 0.0478 0.5187
vt 0.0394 0.4586
vt 0.0349 0.3989
vt 0.7943 0.2530
vt 0.8272 0.3543
vt 0.7614 0.3543
vt 0.4730 0.4062
vt 0.9111 0.4134
vt 0.8260 0.3525
vt 0.7410 0.2917
vt 0.8362 0.3838
vt 0.4790 0.3479
vt 0.4871 0.3192
vt 0.0470 0.2825
vt 0.0632 0.2251
vt 0.4794 0.4661
vt 0.4752 0.4360
vt 0.0478 0.5187
vt 0.0394 0.4586
vt 0.0349 0.3989
vt 0.7943 0.2530
vt 0.8272 0.3543
vt 0.7614 0.3543
vt 0.4730 0.4062
vt 0.9111 0.4134
vt 0.8260 0.3525
vt 0.7410 0.2917
vt 0.8362 0.3838
vt 0.4790 0.3479
vt 0.4871 0.3192
vt 0.0470 0.2825
vt 0.0632 0.2251
vt 0.4794 0.4661
vt 0.8476 0.2917
vt 0.8476 0.2917
vt 0.8476 0.2917
vt 0.8476 0.2917
vn 0.1660 0.2894 0.9427
vn -0.6454 0.3257 0.6909
vn -0.6629 0.3283 0.6729
vn -0.8813 0.4209 -0.2149
vn -0.6211 0.4451 -0.6451
vn -0.0218 0.3954 -0.9182
vn 0.5408 0.3225 -0.7769
vn 0.8271 0.2852 -0.4843
vn 0.1589 -0.9736 -0.1638
vn 0.9306 0.2395 0.2768
vn 0.7603 0.2397 0.6037
vn -0.3925 -0.9197 0.0118
vn 0.7280 0.5894 0.3503
vn 0.7295 0.5893 0.3473
vn 0.6206 0.6193 -0.4810
vn 0.5102 0.6294 -0.5862
vn -0.0507 0.6486 -0.7594
vn -0.5358 0.6916 -0.4844
vn -0.7570 0.6510 -0.0556
vn -0.4596 0.4517 0.7647
vn -0.7017 0.4902 0.5171
vn -0.1332 0.5708 0.8102
vn -0.2486 -0.9295 -0.2726
vn 0.0799 -0.8323 -0.5485
vn -0.1748 -0.9579 0.2277
vn 0.4147 -0.8901 -0.1891
vn -0.3383 -0.9390 0.0620
vn 0.0904 -0.9868 0.1340
vn 0.1828 -0.9502 -0.2523
vn -0.0592 -0.9749 0.2146
vn 0.8704 0.3082 -0.3839
vn 0.8156 0.3458 0.4639
vn 0.8022 0.3482 0.4851
vn -0.0113 0.4234 0.9059
vn -0.4910 0.4362 0.7541
vn -0.8962 0.3757 0.2360
vn -0.8894 0.3012 -0.3439
vn -0.6715 0.2679 -0.6909
vn -0.1743 -0.9782 -0.1130
vn 0.0448 0.2377 -0.9703
vn 0.4024 0.2464 -0.8817
vn 0.1248 -0.9160 0.3814
vn 0.1559 0.5908 -0.7917
vn 0.1525 0.5906 -0.7924
vn -0.6274 0.6037 -0.4919
vn -0.7039 0.6124 -0.3599
vn -0.7409 0.6325 0.2259
vn -0.3606 0.6854 0.6327
vn 0.1090 0.6558 0.7470
vn 0.8408 0.4718 0.2655
vn 0.6562 0.5069 0.5590
vn 0.8056 0.5892 -0.0628
vn -0.1852 -0.9330 0.3084
vn -0.5327 -0.8446 0.0537
vn 0.2843 -0.9513 0.1192
vn -0.2609 -0.8974 -0.3560
vn 0.1612 -0.9346 0.3170
vn 0.1315 -0.9844 -0.1165
vn -0.2664 -0.9569 -0.1155
vn 0.2448 -0.9695 0.0099
vn -0.9377 0.3460 -0.0319
vn -0.5242 0.3046 -0.7953
vn -0.1838 0.3030 -0.9351
vn 0.4388 0.2959 -0.8485
vn 0.8110 0.3430 -0.4740
vn 0.9169 0.3558 0.1806
vn 0.5781 0.3563 0.7341
vn 0.2876 0.3599 0.8876
vn -0.3261 -0.9158 0.2344
vn -0.4363 0.3736 0.8186
vn -0.8627 0.3487 0.3662
vn 0.0815 -0.9967 -0.0042
vn -0.4678 0.7137 0.5214
vn -0.5069 0.6243 0.5944
vn 0.3215 0.5623 0.7619
vn 0.3353 0.5606 0.7572
vn 0.8364 0.5475 -0.0259
vn 0.5771 0.4553 -0.6780
vn 0.6048 0.5220 -0.6014
vn -0.3823 0.4917 -0.7824
vn -0.3775 0.4502 -0.8092
vn -0.6097 0.6809 -0.4058
vn -0.1095 -0.9825 -0.1505
vn -0.0672 -0.9556 0.2870
vn -0.2409 -0.9540 -0.1786
vn 0.2135 -0.9641 0.1577
vn -0.0052 -0.9623 -0.2719
vn -0.2433 -0.9494 0.1988
vn 0.1207 -0.9369 0.3281
vn -0.1928 -0.9063 0.3761
vn 0.2902 0.2710 -0.9178
vn 0.9037 0.2741 -0.3289
vn 0.9113 0.2765 -0.3050
vn 0.7141 0.3826 0.5863
vn 0.2907 0.4315 0.8540
vn -0.3692 0.4191 0.8295
vn -0.8121 0.3702 0.4510
vn -0.9388 0.3391 0.0612
vn -0.2702 -0.9597 0.0776
vn -0.6930 0.2774 -0.6654
vn -0.3947 0.2602 -0.8812
vn 0.3035 -0.9379 0.1678
vn -0.4595 0.6147 -0.6411
vn -0.4622 0.6148 -0.6391
vn -0.7341 0.6623 0.1500
vn -0.6821 0.6698 0.2935
vn -0.2580 0.6660 0.6999
vn 0.3005 0.6774 0.6715
vn 0.6875 0.6141 0.3876
vn 0.7780 0.4071 -0.4785
vn 0.8854 0.4404 -0.1487
vn 0.5138 0.5409 -0.6659
vn 0.0472 -0.9327 0.3575
vn -0.3639 -0.8119 0.4565
vn 0.2037 -0.9713 -0.1227
vn -0.5051 -0.8630 -0.0147
vn 0.2765 -0.9559 0.0987
vn -0.0766 -0.9845 -0.1578
vn -0.3298 -0.9327 0.1459
vn 0.0937 -0.9822 -0.1628
vn 0.6167 0.0318 -0.7866
vn 0.9396 0.0170 0.3417
vn 0.0299 0.0165 0.9994
vn -0.9933 0.0384 0.1089
vn -0.7132 0.0404 -0.6998
vn 0.0000 -1.0000 -0.0000
vn -0.5837 0.1176 -0.8034
vn -0.9388 0.1603 0.3050
vn 0.0000 0.0557 0.9984
vn 0.9498 0.0514 0.3086
vn 0.5868 0.0566 -0.8077
vn -0.6860 0.0649 -0.7247
vn -0.9934 0.0589 0.0984
vn 0.0172 0.0623 0.9979
vn 0.9413 0.0415 0.3351
vn 0.5621 0.0460 -0.8258
vn -0.2679 0.0411 0.9626
vn -0.9953 0.0397 0.0885
vn 0.5581 0.0270 -0.8293
vn -0.6673 0.0367 -0.7439
vn 0.9759 0.0281 0.2163
vn 0.8870 0.3260 0.3269
vn 0.3515 -0.8710 -0.3432
vn 0.6801 -0.7319 -0.0413
vn -0.5244 -0.1100 0.8443
vn 0.5152 -0.8109 0.2776
vn -0.9140 0.2807 -0.2929
vn -0.1504 -0.6597 -0.7363
vn -0.5135 0.3262 -0.7937
vn -0.1266 0.9708 0.2038
vn -0.1091 0.9784 0.1757
vn -0.4183 -0.7983 -0.4333
vn 0.4932 0.2336 0.8380
vn -0.5728 -0.7576 0.3129
vn 0.6412 0.2284 0.7326
vn -0.3580 -0.7092 0.6074
vn 0.0597 0.9944 -0.0877
vn -0.9630 0.2379 0.1268
vn -0.3437 0.7712 -0.5358
vn 0.7825 0.2325 -0.5776
vn 0.7636 0.2256 -0.6050
vn -0.7858 0.3771 0.4901
vn 0.7324 -0.6655 0.1441
vn -0.2186 -0.8710 0.4400
vn 0.4375 -0.7576 -0.4844
vn -0.8470 0.2284 -0.4801
vn 0.8199 -0.5686 0.0669
vn -0.0274 0.9944 0.1025
vn 0.9876 0.0850 -0.1320
vn -0.4080 0.9027 -0.1365
vn -0.9476 0.3039 0.0989
vn -0.5213 0.2256 0.8230
vn 0.5802 0.3771 -0.7219
vn -0.3792 -0.8511 0.3631
vn -0.3153 -0.8710 -0.3768
vn 0.2681 -0.7576 0.5951
vn 0.7796 0.2284 -0.5832
vn -0.3252 -0.6042 0.7275
vn -0.0829 0.9944 -0.0662
vn 0.6808 0.4407 0.5850
vn 0.4825 0.7582 -0.4386
vn -0.3861 0.2590 -0.8854
vn -0.5447 0.2256 -0.8077
vn 0.4284 0.3771 0.8211
vn -0.7208 -0.6698 0.1783
vn 0.7248 0.5923 0.3519
vn 0.7330 0.5621 0.3831
vn 0.6222 0.6241 -0.4727
vn 0.5676 0.5856 -0.5787
vn 0.0916 0.6885 -0.7194
vn -0.5614 0.6822 -0.4686
vn -0.6839 0.7122 -0.1581
vn -0.6276 0.4261 0.6516
vn -0.6108 0.4237 0.6689
vn 0.1598 0.7143 0.6814
vn 0.1580 0.5938 -0.7890
vn 0.1871 0.5642 -0.8042
vn -0.6198 0.6086 -0.4954
vn -0.7091 0.5683 -0.4173
vn -0.7363 0.6721 0.0782
vn -0.3390 0.6765 0.6538
vn -0.0092 0.7142 0.6998
vn 0.7709 0.4452 0.4555
vn 0.7838 0.4430 0.4351
vn 0.6082 0.7274 -0.3177
vn -0.8221 0.4559 0.3410
vn -0.4050 0.5739 0.7118
vn 0.3511 0.5354 0.7681
vn 0.3690 0.6096 0.7016
vn 0.7362 0.6601 0.1496
vn 0.8101 0.3663 -0.4577
vn 0.3938 0.3677 -0.8425
vn -0.1605 0.3785 -0.9116
vn -0.4775 0.4098 -0.7772
vn -0.8603 0.5081 0.0408
vn -0.4558 0.6175 -0.6411
vn -0.4508 0.5869 -0.6726
vn -0.7316 0.6669 0.1418
vn -0.7325 0.6287 0.2612
vn -0.3648 0.7118 0.6002
vn 0.3298 0.6663 0.6688
vn 0.5798 0.6816 0.4463
vn 0.8759 0.3764 -0.3020
vn 0.8685 0.3744 -0.3250
vn 0.2028 0.7022 -0.6825
vn -0.2679 0.0441 0.9624
vn 0.3515 -0.8710 -0.3433
vn 0.6801 -0.7320 -0.0413
vn 0.5802 0.3772 -0.7219
vn 0.4284 0.3772 0.8211
s off
f 13/1/1 2/2/1 14/3/1
f 14/3/2 2/2/2 15/4/2
f 15/4/3 2/2/3 16/5/3
f 16/5/4 2/2/4 17/6/4
f 17/6/5 2/2/5 18/7/5
f 18/7/6 2/2/6 19/8/6
f 19/8/7 2/2/7 20/9/7
f 20/9/8 2/2/8 21/10/8
f 6/11/9 12/12/9 5/13/9
f 21/10/10 2/2/10 22/14/10
f 22/15/11 2/2/11 13/1/11
f 1/16/12 12/12/12 11/17/12
f 22/15/13 1/18/13 11/19/13
f 10/20/14 22/14/14 11/21/14
f 20/9/15 10/20/15 9/22/15
f 8/23/16 20/9/16 9/22/16
f 18/7/17 8/23/17 7/24/17
f 17/6/18 7/24/18 6/25/18
f 16/5/19 6/25/19 5/26/19
f 4/27/20 16/5/20 5/26/20
f 14/3/21 4/27/21 3/28/21
f 1/18/22 14/3/22 3/28/22
f 11/17/23 12/12/23 10/29/23
f 5/13/24 12/12/24 4/30/24
f 10/29/25 12/12/25 9/31/25
f 4/30/26 12/12/26 3/32/26
f 9/31/27 12/12/27 8/33/27
f 8/33/28 12/12/28 7/34/28
f 12/12/29 1/16/29 3/32/29
f 7/34/30 12/12/30 6/11/30
f 35/35/31 24/36/31 36/37/31
f 36/37/32 24/36/32 37/38/32
f 37/39/33 24/36/33 38/40/33
f 38/40/34 24/36/34 39/41/34
f 39/41/35 24/36/35 40/42/35
f 40/42/36 24/36/36 41/43/36
f 41/43/37 24/36/37 42/44/37
f 42/44/38 24/36/38 43/45/38
f 28/46/39 34/47/39 27/48/39
f 43/45/40 24/36/40 44/49/40
f 44/49/41 24/36/41 35/35/41
f 23/50/42 34/47/42 33/51/42
f 44/49/43 23/52/43 33/53/43
f 32/54/44 44/49/44 33/53/44
f 42/44/45 32/54/45 31/55/45
f 30/56/46 42/44/46 31/55/46
f 40/42/47 30/56/47 29/57/47
f 39/41/48 29/57/48 28/58/48
f 38/40/49 28/58/49 27/59/49
f 26/60/50 38/40/50 27/59/50
f 36/37/51 26/61/51 25/62/51
f 23/52/52 36/37/52 25/62/52
f 33/51/53 34/47/53 32/63/53
f 27/48/54 34/47/54 26/64/54
f 32/63/55 34/47/55 31/65/55
f 26/64/56 34/47/56 25/66/56
f 31/65/57 34/47/57 30/67/57
f 30/67/58 34/47/58 29/68/58
f 34/47/59 23/50/59 25/66/59
f 29/68/60 34/47/60 28/46/60
f 57/69/61 46/70/61 58/71/61
f 58/71/62 46/70/62 59/72/62
f 59/72/63 46/70/63 60/73/63
f 60/73/64 46/70/64 61/74/64
f 61/74/65 46/70/65 62/75/65
f 62/75/66 46/70/66 63/76/66
f 63/77/67 46/70/67 64/78/67
f 64/78/68 46/70/68 65/79/68
f 50/80/69 56/81/69 49/82/69
f 65/79/70 46/70/70 66/83/70
f 66/83/71 46/70/71 57/69/71
f 45/84/72 56/81/72 55/85/72
f 55/86/73 57/69/73 45/87/73
f 65/79/74 55/86/74 54/88/74
f 64/78/75 54/88/75 53/89/75
f 52/90/76 64/78/76 53/89/76
f 62/75/77 52/91/77 51/92/77
f 50/93/78 62/75/78 51/92/78
f 60/73/79 50/93/79 49/94/79
f 48/95/80 60/73/80 49/94/80
f 58/71/81 48/95/81 47/96/81
f 57/69/82 47/96/82 45/87/82
f 55/85/83 56/81/83 54/97/83
f 49/82/84 56/81/84 48/98/84
f 54/97/85 56/81/85 53/99/85
f 48/98/86 56/81/86 47/100/86
f 53/99/87 56/81/87 52/101/87
f 52/101/88 56/81/88 51/102/88
f 56/81/89 45/84/89 47/100/89
f 51/102/90 56/81/90 50/80/90
f 79/103/91 68/104/91 80/105/91
f 80/105/92 68/104/92 81/106/92
f 81/106/93 68/104/93 82/107/93
f 82/107/94 68/104/94 83/108/94
f 83/109/95 68/104/95 84/110/95
f 84/110/96 68/104/96 85/111/96
f 85/111/97 68/104/97 86/112/97
f 86/112/98 68/104/98 87/113/98
f 72/114/99 78/115/99 71/116/99
f 87/113/100 68/104/100 88/117/100
f 88/117/101 68/104/101 79/103/101
f 67/118/102 78/115/102 77/119/102
f 88/117/103 67/120/103 77/121/103
f 76/122/104 88/117/104 77/121/104
f 86/112/105 76/122/105 75/123/105
f 74/124/106 86/112/106 75/123/106
f 84/110/107 74/124/107 73/125/107
f 83/109/108 73/125/108 72/126/108
f 82/107/109 72/127/109 71/128/109
f 70/129/110 82/107/110 71/128/110
f 80/105/111 70/129/111 69/130/111
f 67/120/112 80/105/112 69/130/112
f 77/119/113 78/115/113 76/131/113
f 71/116/114 78/115/114 70/132/114
f 76/131/115 78/115/115 75/133/115
f 70/132/116 78/115/116 69/134/116
f 75/133/117 78/115/117 74/135/117
f 74/135/118 78/115/118 73/136/118
f 78/115/119 67/118/119 69/134/119
f 73/136/120 78/115/120 72/114/120
f 90/137/121 96/138/121 102/139/121
f 96/138/122 100/140/122 97/141/122
f 97/142/123 100/143/123 98/144/123
f 98/144/124 101/145/124 99/146/124
f 90/137/125 102/139/125 99/146/125
f 91/147/126 93/148/126 94/149/126
f 99/146/127 89/150/127 94/151/127
f 93/152/128 99/146/128 94/151/128
f 92/153/129 98/144/129 93/152/129
f 91/154/130 97/141/130 92/155/130
f 95/156/131 91/154/131 89/150/131
f 94/149/126 89/157/126 91/147/126
f 91/147/126 92/158/126 93/148/126
f 99/146/132 95/156/132 89/150/132
f 93/152/133 98/144/133 99/146/133
f 92/153/134 97/142/134 98/144/134
f 91/154/135 96/138/135 97/141/135
f 95/156/136 96/138/136 91/154/136
f 100/143/137 101/145/137 98/144/137
f 99/146/138 101/145/138 90/137/138
f 102/139/139 96/138/139 95/156/139
f 99/146/140 102/139/140 95/156/140
f 100/140/141 96/138/141 90/137/141
f 112/159/142 106/160/142 105/161/142
f 123/162/143 117/163/143 116/164/143
f 103/165/144 112/159/144 105/161/144
f 103/166/145 106/167/145 107/168/145
f 112/159/146 111/169/146 104/170/146
f 107/168/147 113/171/147 108/172/147
f 104/170/148 111/169/148 113/171/148
f 113/171/149 110/173/149 104/170/149
f 110/174/150 109/175/150 104/170/150
f 109/175/151 107/176/151 106/177/151
f 111/169/152 108/172/152 113/171/152
f 109/178/153 112/159/153 104/170/153
f 114/179/154 123/162/154 116/164/154
f 114/180/155 117/181/155 118/182/155
f 123/162/156 122/183/156 115/184/156
f 118/182/157 124/185/157 119/186/157
f 115/184/158 122/183/158 124/185/158
f 124/185/159 121/187/159 115/184/159
f 121/188/160 120/189/160 115/184/160
f 120/189/161 118/190/161 117/191/161
f 122/183/162 119/186/162 124/185/162
f 120/192/163 123/162/163 115/184/163
f 134/193/164 128/194/164 127/195/164
f 125/196/165 134/193/165 127/195/165
f 125/197/166 128/198/166 129/199/166
f 134/193/167 133/200/167 126/201/167
f 129/199/168 135/202/168 130/203/168
f 126/201/169 133/200/169 135/202/169
f 135/202/170 132/204/170 126/201/170
f 132/205/171 131/206/171 126/201/171
f 131/206/172 129/207/172 128/208/172
f 133/200/173 130/203/173 135/202/173
f 131/209/174 134/193/174 126/201/174
f 145/210/175 139/211/175 138/212/175
f 136/213/176 145/210/176 138/212/176
f 136/214/177 139/215/177 140/216/177
f 145/210/178 144/217/178 137/218/178
f 140/216/179 146/219/179 141/220/179
f 137/218/180 144/217/180 146/219/180
f 146/219/181 143/221/181 137/218/181
f 143/222/182 142/223/182 137/218/182
f 142/223/183 140/224/183 139/225/183
f 144/217/184 141/220/184 146/219/184
f 142/226/185 145/210/185 137/218/185
f 22/15/186 13/1/186 1/18/186
f 10/20/187 21/10/187 22/14/187
f 20/9/188 21/10/188 10/20/188
f 8/23/189 19/8/189 20/9/189
f 18/7/190 19/8/190 8/23/190
f 17/6/191 18/7/191 7/24/191
f 16/5/192 17/6/192 6/25/192
f 4/27/193 15/4/193 16/5/193
f 14/3/194 15/4/194 4/27/194
f 1/18/195 13/1/195 14/3/195
f 44/49/196 35/35/196 23/52/196
f 32/54/197 43/45/197 44/49/197
f 42/44/198 43/45/198 32/54/198
f 30/56/199 41/43/199 42/44/199
f 40/42/200 41/43/200 30/56/200
f 39/41/201 40/42/201 29/57/201
f 38/40/202 39/41/202 28/58/202
f 26/60/203 37/39/203 38/40/203
f 36/37/204 37/38/204 26/61/204
f 23/52/205 35/35/205 36/37/205
f 55/86/206 66/83/206 57/69/206
f 65/79/207 66/83/207 55/86/207
f 64/78/208 65/79/208 54/88/208
f 52/90/209 63/77/209 64/78/209
f 62/75/210 63/76/210 52/91/210
f 50/93/211 61/74/211 62/75/211
f 60/73/212 61/74/212 50/93/212
f 48/95/213 59/72/213 60/73/213
f 58/71/214 59/72/214 48/95/214
f 57/69/215 58/71/215 47/96/215
f 88/117/216 79/103/216 67/120/216
f 76/122/217 87/113/217 88/117/217
f 86/112/218 87/113/218 76/122/218
f 74/124/219 85/111/219 86/112/219
f 84/110/220 85/111/220 74/124/220
f 83/109/221 84/110/221 73/125/221
f 82/107/222 83/108/222 72/127/222
f 70/129/223 81/106/223 82/107/223
f 80/105/224 81/106/224 70/129/224
f 67/120/225 79/103/225 80/105/225
f 100/143/226 90/137/226 101/145/226
f 112/159/142 109/178/142 106/160/142
f 123/162/227 120/192/227 117/163/227
f 103/165/228 111/169/228 112/159/228
f 107/168/145 108/172/145 103/166/145
f 103/166/145 105/227/145 106/167/145
f 107/168/147 110/173/147 113/171/147
f 109/175/151 110/174/151 107/176/151
f 111/169/152 103/165/152 108/172/152
f 114/179/154 122/183/154 123/162/154
f 118/182/155 119/186/155 114/180/155
f 114/180/155 116/228/155 117/181/155
f 118/182/157 121/187/157 124/185/157
f 120/189/161 121/188/161 118/190/161
f 122/183/162 114/179/162 119/186/162
f 134/193/164 131/209/164 128/194/164
f 125/196/165 133/200/165 134/193/165
f 129/199/166 130/203/166 125/197/166
f 125/197/166 127/229/166 128/198/166
f 129/199/168 132/204/168 135/202/168
f 131/206/172 132/205/172 129/207/172
f 133/200/229 125/196/229 130/203/229
f 145/210/175 142/226/175 139/211/175
f 136/213/176 144/217/176 145/210/176
f 140/216/177 141/220/177 136/214/177
f 136/214/177 138/230/177 139/215/177
f 140/216/179 143/221/179 146/219/179
f 142/223/183 143/222/183 140/224/183
f 144/217/230 136/213/230 141/220/230
