# Blender v2.79 (sub 0) OBJ File: ''
# www.blender.org
o Capsule
v 0.250000 0.933013 0.000000
v 0.210313 0.933013 -0.135160
v 0.103854 0.933013 -0.227408
v -0.035579 0.933013 -0.247455
v -0.163715 0.933013 -0.188937
v -0.239873 0.933013 -0.070433
v -0.239873 0.933013 0.070433
v -0.163715 0.933013 0.188937
v -0.035579 0.933013 0.247455
v 0.103854 0.933013 0.227408
v 0.210313 0.933013 0.135160
v 0.433013 0.750000 0.000000
v 0.364273 0.750000 -0.234104
v 0.179880 0.750000 -0.393882
v -0.061624 0.750000 -0.428605
v -0.283563 0.750000 -0.327249
v -0.415473 0.750000 -0.121994
v -0.415473 0.750000 0.121994
v -0.283563 0.750000 0.327249
v -0.061624 0.750000 0.428605
v 0.179880 0.750000 0.393882
v 0.364273 0.750000 0.234104
v 0.500000 0.500000 0.000000
v 0.420627 0.500000 -0.270320
v 0.207708 0.500000 -0.454816
v -0.071157 0.500000 -0.494911
v -0.327430 0.500000 -0.377875
v -0.479746 0.500000 -0.140866
v -0.479746 0.500000 0.140866
v -0.327430 0.500000 0.377875
v -0.071157 0.500000 0.494911
v 0.207708 0.500000 0.454816
v 0.420627 0.500000 0.270320
v 0.000000 1.000000 0.000000
v 0.250000 -0.933013 0.000000
v 0.210313 -0.933013 -0.135160
v 0.103854 -0.933013 -0.227408
v -0.035579 -0.933013 -0.247455
v -0.163715 -0.933013 -0.188937
v -0.239873 -0.933013 -0.070433
v -0.239873 -0.933013 0.070433
v -0.163715 -0.933013 0.188937
v -0.035579 -0.933013 0.247455
v 0.103854 -0.933013 0.227408
v 0.210313 -0.933013 0.135160
v 0.433013 -0.750000 0.000000
v 0.364273 -0.750000 -0.234104
v 0.179880 -0.750000 -0.393882
v -0.061624 -0.750000 -0.428605
v -0.283563 -0.750000 -0.327249
v -0.415473 -0.750000 -0.121994
v -0.415473 -0.750000 0.121994
v -0.283563 -0.750000 0.327249
v -0.061624 -0.750000 0.428605
v 0.179880 -0.750000 0.393882
v 0.364273 -0.750000 0.234104
v 0.500000 -0.500000 0.000000
v 0.420627 -0.500000 -0.270320
v 0.207708 -0.500000 -0.454816
v -0.071157 -0.500000 -0.494911
v -0.327430 -0.500000 -0.377875
v -0.479746 -0.500000 -0.140866
v -0.479746 -0.500000 0.140866
v -0.327430 -0.500000 0.377875
v -0.071157 -0.500000 0.494911
v 0.207708 -0.500000 0.454816
v 0.420627 -0.500000 0.270320
v 0.000000 -1.000000 0.000000
vt 0.155009 0.999779
vt 0.065642 0.903148
vt 0.155009 0.903148
vt 0.512477 0.903148
vt 0.601844 0.986833
vt 0.512477 0.999779
vt 0.155009 0.806075
vt 0.065642 0.720015
vt 0.065642 0.785930
vt 0.512477 0.806075
vt 0.601844 0.720015
vt 0.512477 0.729963
vt 0.155009 0.630278
vt 0.155009 0.729963
vt 0.601844 0.633686
vt 0.512477 0.630278
vt 0.155009 0.538669
vt 0.065642 0.633686
vt 0.601844 0.554350
vt 0.512477 0.538669
vt 0.155009 0.185654
vt 0.065642 0.252280
vt 0.155009 0.270377
vt 0.512477 0.185654
vt 0.601844 0.252280
vt 0.601844 0.178908
vt 0.155009 0.084944
vt 0.065642 0.178908
vt 0.601844 0.091690
vt 0.512477 0.084944
vt 0.065642 0.018318
vt 0.065642 0.091690
vt 0.601844 0.018318
vt 0.512477 0.000221
vt 0.155009 0.362429
vt 0.065642 0.286501
vt 0.155009 0.270820
vt 0.512477 0.270820
vt 0.601844 0.365837
vt 0.512477 0.362429
vt 0.155009 0.462114
vt 0.065642 0.365837
vt 0.601844 0.452167
vt 0.512477 0.462114
vt 0.155009 0.538226
vt 0.065642 0.452167
vt 0.512477 0.538226
vt 0.601844 0.518081
vt 0.065642 0.819463
vt 0.155009 0.806517
vt 0.512477 0.806517
vt 0.601844 0.903148
vt 0.065642 0.986833
vt 0.000221 0.903148
vt 0.667265 0.951463
vt 0.733622 0.012634
vt 0.722743 0.105118
vt 0.667707 0.069749
vt 0.667707 0.376617
vt 0.760799 0.379010
vt 0.733622 0.319501
vt 0.000221 0.692838
vt 0.667265 0.642996
vt 0.899288 0.036453
vt 0.810641 0.064976
vt 0.819952 0.000221
vt 0.819952 0.307089
vt 0.856446 0.392762
vt 0.899288 0.343320
vt 0.946441 0.109825
vt 0.856446 0.085895
vt 0.883670 0.435124
vt 0.946441 0.416692
vt 0.000221 0.160477
vt 0.667265 0.110122
vt 0.899288 0.270415
vt 0.883670 0.178611
vt 0.946441 0.197043
vt 0.946441 0.503910
vt 0.856446 0.527840
vt 0.899288 0.577282
vt 0.819952 0.306646
vt 0.856446 0.220973
vt 0.810641 0.548759
vt 0.819952 0.613514
vt 0.000221 0.375147
vt 0.667265 0.424990
vt 0.667707 0.237118
vt 0.760799 0.234725
vt 0.733622 0.294234
vt 0.733622 0.601101
vt 0.722743 0.508617
vt 0.667707 0.543986
vt 0.000221 0.854832
vt 0.601844 0.819463
vt 0.667265 0.903148
vt 0.155009 0.000221
vt 0.708556 0.153434
vt 0.797923 0.153434
vt 0.760799 0.072143
vt 0.883670 0.128256
vt 0.810641 0.241891
vt 0.722743 0.201749
vt 0.722743 0.411986
vt 0.708556 0.460301
vt 0.797923 0.460301
vt 0.810641 0.371844
vt 0.883670 0.485479
vt 0.760799 0.541592
vt 0.601844 0.785930
vt 0.065642 0.554350
vt 0.512477 0.270377
vt 0.601844 0.286501
vt 0.065642 0.518081
vt 0.000221 0.951463
vt 0.000221 0.642996
vt 0.667265 0.692839
vt 0.000221 0.110122
vt 0.667265 0.160477
vt 0.000221 0.424990
vt 0.667265 0.375147
vt 0.667265 0.854833
vn 0.9293 0.2490 -0.2729
vn 0.9293 -0.2490 -0.2729
vn 0.6342 0.2490 -0.7319
vn 0.6342 -0.2490 -0.7319
vn 0.1378 0.2490 -0.9586
vn 0.1378 -0.2490 -0.9586
vn -0.4023 0.2490 -0.8810
vn -0.4023 -0.2490 -0.8810
vn -0.8148 0.2490 -0.5236
vn -0.8148 -0.2490 -0.5236
vn -0.9685 0.2490 0.0000
vn -0.9685 -0.2490 0.0000
vn -0.8148 0.2490 0.5236
vn -0.8148 -0.2490 0.5236
vn -0.4023 0.2490 0.8810
vn -0.4023 -0.2490 0.8810
vn 0.1378 0.2490 0.9586
vn 0.1378 -0.2490 0.9586
vn 0.6342 0.2490 0.7319
vn 0.6342 -0.2490 0.7319
vn 0.9293 0.2490 0.2729
vn 0.9293 -0.2490 0.2729
vn 0.6923 0.6923 -0.2033
vn 0.6923 -0.6923 -0.2033
vn 0.4725 0.6923 -0.5453
vn 0.4725 -0.6923 -0.5453
vn 0.1027 0.6923 -0.7142
vn 0.1027 -0.6923 -0.7142
vn -0.2998 0.6923 -0.6564
vn -0.2998 -0.6923 -0.6564
vn -0.6070 0.6923 -0.3901
vn -0.6070 -0.6923 -0.3901
vn -0.7216 0.6923 0.0000
vn -0.7216 -0.6923 0.0000
vn -0.6070 0.6923 0.3901
vn -0.6070 -0.6923 0.3901
vn -0.2998 0.6923 0.6564
vn -0.2998 -0.6923 0.6564
vn 0.1027 0.6923 0.7142
vn 0.1027 -0.6923 0.7142
vn 0.4725 0.6923 0.5453
vn 0.4725 -0.6923 0.5453
vn 0.6923 0.6923 0.2033
vn 0.6923 -0.6923 0.2033
vn 0.9595 0.0000 -0.2817
vn 0.6549 0.0000 -0.7557
vn 0.1423 0.0000 -0.9898
vn -0.4154 0.0000 -0.9096
vn -0.8413 0.0000 -0.5406
vn -1.0000 0.0000 0.0000
vn -0.8413 0.0000 0.5406
vn -0.4154 0.0000 0.9096
vn 0.1423 0.0000 0.9898
vn 0.6549 0.0000 0.7557
vn 0.9595 0.0000 0.2817
vn 0.2581 0.9631 -0.0758
vn 0.1761 0.9631 -0.2033
vn 0.0383 0.9631 -0.2662
vn -0.1117 0.9631 -0.2447
vn -0.2263 0.9631 -0.1454
vn -0.2690 0.9631 0.0000
vn -0.2263 0.9631 0.1454
vn -0.1117 0.9631 0.2447
vn 0.0383 0.9631 0.2662
vn 0.1761 0.9631 0.2033
vn 0.2581 0.9631 0.0758
vn 0.2581 -0.9631 -0.0758
vn 0.1761 -0.9631 -0.2033
vn 0.0383 -0.9631 -0.2662
vn -0.1117 -0.9631 -0.2447
vn -0.2263 -0.9631 -0.1454
vn -0.2690 -0.9631 0.0000
vn -0.2263 -0.9631 0.1454
vn -0.1117 -0.9631 0.2447
vn 0.0383 -0.9631 0.2662
vn 0.1761 -0.9631 0.2033
vn 0.2581 -0.9631 0.0758
s off
f 24/1/1 12/2/1 23/3/1
f 57/4/2 47/5/2 58/6/2
f 24/7/3 14/8/3 13/9/3
f 58/10/4 48/11/4 59/12/4
f 26/13/5 14/8/5 25/14/5
f 59/12/6 49/15/6 60/16/6
f 27/17/7 15/18/7 26/13/7
f 60/16/8 50/19/8 61/20/8
f 28/21/9 16/22/9 27/23/9
f 62/24/10 50/25/10 51/26/10
f 29/27/11 17/28/11 28/21/11
f 62/24/12 52/29/12 63/30/12
f 29/27/13 19/31/13 18/32/13
f 63/30/14 53/33/14 64/34/14
f 31/35/15 19/36/15 30/37/15
f 64/38/16 54/39/16 65/40/16
f 32/41/17 20/42/17 31/35/17
f 65/40/18 55/43/18 66/44/18
f 33/45/19 21/46/19 32/41/19
f 67/47/20 55/43/20 56/48/20
f 23/3/21 22/49/21 33/50/21
f 67/51/22 46/52/22 57/4/22
f 13/53/23 1/54/23 12/2/23
f 46/52/24 36/55/24 47/5/24
f 14/56/25 2/57/25 13/58/25
f 47/59/26 37/60/26 48/61/26
f 15/18/27 3/62/27 14/8/27
f 48/11/28 38/63/28 49/15/28
f 16/64/29 4/65/29 15/66/29
f 49/67/30 39/68/30 50/69/30
f 17/70/31 5/71/31 16/64/31
f 50/69/32 40/72/32 51/73/32
f 18/32/33 6/74/33 17/28/33
f 51/26/34 41/75/34 52/29/34
f 19/76/35 7/77/35 18/78/35
f 52/79/36 42/80/36 53/81/36
f 20/82/37 8/83/37 19/76/37
f 53/81/38 43/84/38 54/85/38
f 21/46/39 9/86/39 20/42/39
f 54/39/40 44/87/40 55/43/40
f 22/88/41 10/89/41 21/90/41
f 55/91/42 45/92/42 56/93/42
f 12/2/43 11/94/43 22/49/43
f 56/95/44 35/96/44 46/52/44
f 23/3/45 58/6/45 24/1/45
f 24/7/46 59/12/46 25/14/46
f 25/14/47 60/16/47 26/13/47
f 26/13/48 61/20/48 27/17/48
f 27/23/49 62/24/49 28/21/49
f 28/21/50 63/30/50 29/27/50
f 29/27/51 64/34/51 30/97/51
f 30/37/52 65/40/52 31/35/52
f 31/35/53 66/44/53 32/41/53
f 32/41/54 67/47/54 33/45/54
f 33/50/55 57/4/55 23/3/55
f 1/98/56 2/57/56 34/99/56
f 2/57/57 3/100/57 34/99/57
f 3/100/58 4/65/58 34/99/58
f 4/65/59 5/71/59 34/99/59
f 5/71/60 6/101/60 34/99/60
f 6/101/61 7/77/61 34/99/61
f 7/77/62 8/83/62 34/99/62
f 8/83/63 9/102/63 34/99/63
f 9/102/64 10/89/64 34/99/64
f 10/89/65 11/103/65 34/99/65
f 11/103/66 1/98/66 34/99/66
f 36/104/67 35/105/67 68/106/67
f 37/60/68 36/104/68 68/106/68
f 38/107/69 37/60/69 68/106/69
f 39/68/70 38/107/70 68/106/70
f 40/72/71 39/68/71 68/106/71
f 41/108/72 40/72/72 68/106/72
f 42/80/73 41/108/73 68/106/73
f 43/84/74 42/80/74 68/106/74
f 44/109/75 43/84/75 68/106/75
f 45/92/76 44/109/76 68/106/76
f 35/105/77 45/92/77 68/106/77
f 24/1/1 13/53/1 12/2/1
f 57/4/2 46/52/2 47/5/2
f 24/7/3 25/14/3 14/8/3
f 58/10/4 47/110/4 48/11/4
f 26/13/5 15/18/5 14/8/5
f 59/12/6 48/11/6 49/15/6
f 27/17/7 16/111/7 15/18/7
f 60/16/8 49/15/8 50/19/8
f 28/21/9 17/28/9 16/22/9
f 62/24/10 61/112/10 50/25/10
f 29/27/11 18/32/11 17/28/11
f 62/24/12 51/26/12 52/29/12
f 29/27/13 30/97/13 19/31/13
f 63/30/14 52/29/14 53/33/14
f 31/35/15 20/42/15 19/36/15
f 64/38/16 53/113/16 54/39/16
f 32/41/17 21/46/17 20/42/17
f 65/40/18 54/39/18 55/43/18
f 33/45/19 22/114/19 21/46/19
f 67/47/20 66/44/20 55/43/20
f 23/3/21 12/2/21 22/49/21
f 67/51/22 56/95/22 46/52/22
f 13/53/23 2/115/23 1/54/23
f 46/52/24 35/96/24 36/55/24
f 14/56/25 3/100/25 2/57/25
f 47/59/26 36/104/26 37/60/26
f 15/18/27 4/116/27 3/62/27
f 48/11/28 37/117/28 38/63/28
f 16/64/29 5/71/29 4/65/29
f 49/67/30 38/107/30 39/68/30
f 17/70/31 6/101/31 5/71/31
f 50/69/32 39/68/32 40/72/32
f 18/32/33 7/118/33 6/74/33
f 51/26/34 40/119/34 41/75/34
f 19/76/35 8/83/35 7/77/35
f 52/79/36 41/108/36 42/80/36
f 20/82/37 9/102/37 8/83/37
f 53/81/38 42/80/38 43/84/38
f 21/46/39 10/120/39 9/86/39
f 54/39/40 43/121/40 44/87/40
f 22/88/41 11/103/41 10/89/41
f 55/91/42 44/109/42 45/92/42
f 12/2/43 1/54/43 11/94/43
f 56/95/44 45/122/44 35/96/44
f 23/3/45 57/4/45 58/6/45
f 24/7/46 58/10/46 59/12/46
f 25/14/47 59/12/47 60/16/47
f 26/13/48 60/16/48 61/20/48
f 27/23/49 61/112/49 62/24/49
f 28/21/50 62/24/50 63/30/50
f 29/27/51 63/30/51 64/34/51
f 30/37/52 64/38/52 65/40/52
f 31/35/53 65/40/53 66/44/53
f 32/41/54 66/44/54 67/47/54
f 33/50/55 67/51/55 57/4/55
