# Blender v2.79 (sub 0) OBJ File: ''
# www.blender.org
o Torus
v 1.040000 0.000000 0.000000
v 1.012361 0.038042 0.000000
v 0.967639 0.023511 0.000000
v 0.967639 -0.023511 0.000000
v 1.012361 -0.038042 0.000000
v 0.874904 0.000000 -0.562266
v 0.851652 0.038042 -0.547324
v 0.814030 0.023511 -0.523145
v 0.814030 -0.023511 -0.523145
v 0.851652 -0.038042 -0.547324
v 0.432032 0.000000 -0.946017
v 0.420550 0.038042 -0.920876
v 0.401972 0.023511 -0.880196
v 0.401972 -0.023511 -0.880196
v 0.420550 -0.038042 -0.920876
v -0.148008 0.000000 -1.029414
v -0.144074 0.038042 -1.002056
v -0.137710 0.023511 -0.957790
v -0.137710 -0.023511 -0.957790
v -0.144074 -0.038042 -1.002056
v -0.681055 0.000000 -0.785980
v -0.662955 0.038042 -0.765091
v -0.633669 0.023511 -0.731293
v -0.633669 -0.023511 -0.731293
v -0.662955 -0.038042 -0.765091
v -0.997873 0.000000 -0.293002
v -0.971353 0.038042 -0.285215
v -0.928443 0.023511 -0.272615
v -0.928443 -0.023511 -0.272615
v -0.971353 -0.038042 -0.285215
v -0.997873 0.000000 0.293002
v -0.971353 0.038042 0.285215
v -0.928443 0.023511 0.272615
v -0.928443 -0.023511 0.272615
v -0.971353 -0.038042 0.285215
v -0.681055 0.000000 0.785979
v -0.662956 0.038042 0.765091
v -0.633669 0.023511 0.731293
v -0.633669 -0.023511 0.731293
v -0.662956 -0.038042 0.765091
v -0.148008 0.000000 1.029414
v -0.144075 0.038042 1.002056
v -0.137710 0.023511 0.957790
v -0.137710 -0.023511 0.957790
v -0.144075 -0.038042 1.002056
v 0.432032 0.000000 0.946017
v 0.420550 0.038042 0.920876
v 0.401972 0.023511 0.880196
v 0.401972 -0.023511 0.880196
v 0.420550 -0.038042 0.920876
v 0.874904 0.000000 0.562266
v 0.851652 0.038042 0.547324
v 0.814030 0.023511 0.523145
v 0.814030 -0.023511 0.523145
v 0.851652 -0.038042 0.547324
vt 0.636364 0.600000
vt 0.545455 0.800000
vt 0.545455 0.600000
vt 0.636364 0.800000
vt 0.545455 1.000000
vt 0.636364 0.000000
vt 0.545455 0.200000
vt 0.545455 0.000000
vt 0.636364 0.200000
vt 0.545455 0.400000
vt 0.545455 0.400000
vt 0.636364 0.600000
vt 0.545455 0.600000
vt 0.727273 0.600000
vt 0.727273 1.000000
vt 0.636364 1.000000
vt 0.727273 0.000000
vt 0.727273 0.200000
vt 0.636364 0.400000
vt 0.727273 0.400000
vt 0.818182 0.800000
vt 0.727273 0.800000
vt 0.818182 0.000000
vt 0.818182 0.200000
vt 0.818182 0.400000
vt 0.909091 0.600000
vt 0.818182 0.600000
vt 0.909091 0.800000
vt 0.818182 1.000000
vt 0.909091 0.000000
vt 0.909091 0.200000
vt 0.909091 0.400000
vt 1.000000 0.600000
vt 1.000000 0.800000
vt 0.909091 1.000000
vt 1.000000 0.000000
vt 1.000000 0.400000
vt 0.090909 0.600000
vt 0.000000 0.800000
vt 0.000000 0.600000
vt 0.090909 0.800000
vt 0.000000 1.000000
vt 0.090909 0.000000
vt 0.000000 0.200000
vt 0.000000 0.000000
vt 0.090909 0.400000
vt 0.000000 0.400000
vt 0.181818 0.600000
vt 0.181818 0.800000
vt 0.090909 1.000000
vt 0.181818 0.000000
vt 0.090909 0.200000
vt 0.181818 0.400000
vt 0.272727 0.800000
vt 0.181818 1.000000
vt 0.272727 0.000000
vt 0.181818 0.200000
vt 0.272727 0.200000
vt 0.272727 0.400000
vt 0.363636 0.600000
vt 0.272727 0.600000
vt 0.363636 0.800000
vt 0.272727 1.000000
vt 0.363636 0.000000
vt 0.363636 0.200000
vt 0.454545 0.800000
vt 0.363636 1.000000
vt 0.454545 0.000000
vt 0.454545 0.400000
vt 0.363636 0.400000
vt 0.454545 0.600000
vt 0.454545 1.000000
vt 0.454545 0.200000
vt 0.636364 0.400000
vt 1.000000 1.000000
vt 1.000000 0.200000
vn 0.7871 0.5719 -0.2311
vn -0.3078 0.9472 0.0904
vn -0.9595 0.0000 0.2817
vn -0.3078 -0.9472 0.0904
vn 0.7871 -0.5719 -0.2311
vn 0.5372 0.5719 -0.6200
vn -0.2100 0.9472 0.2424
vn -0.6549 0.0000 0.7557
vn -0.2100 -0.9472 0.2424
vn 0.5372 -0.5719 -0.6200
vn 0.1167 0.5719 -0.8120
vn -0.0456 0.9472 0.3175
vn -0.1423 0.0000 0.9898
vn -0.0456 -0.9472 0.3175
vn 0.1167 -0.5719 -0.8120
vn -0.3408 0.5719 -0.7462
vn 0.1332 0.9472 0.2918
vn 0.4154 0.0000 0.9096
vn 0.1332 -0.9472 0.2918
vn -0.3408 -0.5719 -0.7462
vn -0.6901 0.5719 -0.4435
vn 0.2698 0.9472 0.1734
vn 0.8413 0.0000 0.5406
vn 0.2698 -0.9472 0.1734
vn -0.6901 -0.5719 -0.4435
vn -0.8203 0.5719 0.0000
vn 0.3207 0.9472 0.0000
vn 1.0000 0.0000 0.0000
vn 0.3207 -0.9472 0.0000
vn -0.8203 -0.5719 0.0000
vn -0.6901 0.5719 0.4435
vn 0.2698 0.9472 -0.1734
vn 0.8413 0.0000 -0.5406
vn 0.2698 -0.9472 -0.1734
vn -0.6901 -0.5719 0.4435
vn -0.3408 0.5719 0.7462
vn 0.1332 0.9472 -0.2918
vn 0.4154 0.0000 -0.9096
vn 0.1332 -0.9472 -0.2918
vn -0.3408 -0.5719 0.7462
vn 0.1167 0.5719 0.8120
vn -0.0456 0.9472 -0.3175
vn -0.1423 0.0000 -0.9898
vn -0.0456 -0.9472 -0.3175
vn 0.1167 -0.5719 0.8120
vn 0.5372 0.5719 0.6200
vn -0.2100 0.9472 -0.2424
vn -0.6549 0.0000 -0.7557
vn -0.2100 -0.9472 -0.2424
vn 0.5372 -0.5719 0.6200
vn 0.7871 0.5719 0.2311
vn -0.3078 0.9472 -0.0904
vn -0.9595 0.0000 -0.2817
vn -0.3078 -0.9472 -0.0904
vn 0.7871 -0.5719 0.2311
s off
f 6/1/1 2/2/1 1/3/1
f 7/4/2 3/5/2 2/2/2
f 8/6/3 4/7/3 3/8/3
f 9/9/4 5/10/4 4/7/4
f 10/11/5 1/12/5 5/13/5
f 11/14/6 7/4/6 6/1/6
f 7/4/7 13/15/7 8/16/7
f 13/17/8 9/9/8 8/6/8
f 14/18/9 10/19/9 9/9/9
f 15/20/10 6/1/10 10/19/10
f 11/14/11 17/21/11 12/22/11
f 17/21/12 13/15/12 12/22/12
f 18/23/13 14/18/13 13/17/13
f 19/24/14 15/20/14 14/18/14
f 20/25/15 11/14/15 15/20/15
f 21/26/16 17/21/16 16/27/16
f 22/28/17 18/29/17 17/21/17
f 23/30/18 19/24/18 18/23/18
f 24/31/19 20/25/19 19/24/19
f 25/32/20 16/27/20 20/25/20
f 26/33/21 22/28/21 21/26/21
f 27/34/22 23/35/22 22/28/22
f 28/36/23 24/31/23 23/30/23
f 24/31/24 30/37/24 25/32/24
f 30/37/25 21/26/25 25/32/25
f 31/38/26 27/39/26 26/40/26
f 32/41/27 28/42/27 27/39/27
f 33/43/28 29/44/28 28/45/28
f 29/44/29 35/46/29 30/47/29
f 35/46/30 26/40/30 30/47/30
f 36/48/31 32/41/31 31/38/31
f 37/49/32 33/50/32 32/41/32
f 38/51/33 34/52/33 33/43/33
f 34/52/34 40/53/34 35/46/34
f 40/53/35 31/38/35 35/46/35
f 36/48/36 42/54/36 37/49/36
f 42/54/37 38/55/37 37/49/37
f 43/56/38 39/57/38 38/51/38
f 44/58/39 40/53/39 39/57/39
f 45/59/40 36/48/40 40/53/40
f 46/60/41 42/54/41 41/61/41
f 47/62/42 43/63/42 42/54/42
f 48/64/43 44/58/43 43/56/43
f 49/65/44 45/59/44 44/58/44
f 45/59/45 46/60/45 41/61/45
f 46/60/46 52/66/46 47/62/46
f 52/66/47 48/67/47 47/62/47
f 53/68/48 49/65/48 48/64/48
f 49/65/49 55/69/49 50/70/49
f 55/69/50 46/60/50 50/70/50
f 1/3/51 52/66/51 51/71/51
f 2/2/52 53/72/52 52/66/52
f 3/8/53 54/73/53 53/68/53
f 54/73/54 5/10/54 55/69/54
f 5/10/55 51/71/55 55/69/55
f 6/1/1 7/4/1 2/2/1
f 7/4/2 8/16/2 3/5/2
f 8/6/3 9/9/3 4/7/3
f 9/9/4 10/19/4 5/10/4
f 10/11/5 6/74/5 1/12/5
f 11/14/6 12/22/6 7/4/6
f 7/4/7 12/22/7 13/15/7
f 13/17/8 14/18/8 9/9/8
f 14/18/9 15/20/9 10/19/9
f 15/20/10 11/14/10 6/1/10
f 11/14/11 16/27/11 17/21/11
f 17/21/12 18/29/12 13/15/12
f 18/23/13 19/24/13 14/18/13
f 19/24/14 20/25/14 15/20/14
f 20/25/15 16/27/15 11/14/15
f 21/26/16 22/28/16 17/21/16
f 22/28/17 23/35/17 18/29/17
f 23/30/18 24/31/18 19/24/18
f 24/31/19 25/32/19 20/25/19
f 25/32/20 21/26/20 16/27/20
f 26/33/21 27/34/21 22/28/21
f 27/34/22 28/75/22 23/35/22
f 28/36/23 29/76/23 24/31/23
f 24/31/24 29/76/24 30/37/24
f 30/37/25 26/33/25 21/26/25
f 31/38/26 32/41/26 27/39/26
f 32/41/27 33/50/27 28/42/27
f 33/43/28 34/52/28 29/44/28
f 29/44/29 34/52/29 35/46/29
f 35/46/30 31/38/30 26/40/30
f 36/48/31 37/49/31 32/41/31
f 37/49/32 38/55/32 33/50/32
f 38/51/33 39/57/33 34/52/33
f 34/52/34 39/57/34 40/53/34
f 40/53/35 36/48/35 31/38/35
f 36/48/36 41/61/36 42/54/36
f 42/54/37 43/63/37 38/55/37
f 43/56/38 44/58/38 39/57/38
f 44/58/39 45/59/39 40/53/39
f 45/59/40 41/61/40 36/48/40
f 46/60/41 47/62/41 42/54/41
f 47/62/42 48/67/42 43/63/42
f 48/64/43 49/65/43 44/58/43
f 49/65/44 50/70/44 45/59/44
f 45/59/45 50/70/45 46/60/45
f 46/60/46 51/71/46 52/66/46
f 52/66/47 53/72/47 48/67/47
f 53/68/48 54/73/48 49/65/48
f 49/65/49 54/73/49 55/69/49
f 55/69/50 51/71/50 46/60/50
f 1/3/51 2/2/51 52/66/51
f 2/2/52 3/5/52 53/72/52
f 3/8/53 4/7/53 54/73/53
f 54/73/54 4/7/54 5/10/54
f 5/10/55 1/3/55 51/71/55
