# Blender v2.77 (sub 0) OBJ File: ''
# www.blender.org
o Sphere
v -0.342020 0.939693 0.000000
v -0.642788 0.766044 0.000000
v -0.866025 0.500000 0.000000
v -0.984808 0.173648 0.000000
v -0.984808 -0.173648 0.000000
v -0.866025 -0.500000 0.000000
v -0.642788 -0.766044 0.000000
v -0.342020 -0.939693 0.000000
v -0.315985 0.939693 -0.130885
v -0.593858 0.766044 -0.245984
v -0.800103 0.500000 -0.331414
v -0.909844 0.173648 -0.376870
v -0.909844 -0.173648 -0.376870
v -0.800103 -0.500000 -0.331414
v -0.593858 -0.766044 -0.245984
v -0.315985 -0.939693 -0.130885
v -0.241845 0.939693 -0.241845
v -0.454519 0.766044 -0.454519
v -0.612372 0.500000 -0.612372
v -0.696364 0.173648 -0.696364
v -0.696364 -0.173648 -0.696364
v -0.612372 -0.500000 -0.612372
v -0.454519 -0.766044 -0.454519
v -0.241845 -0.939693 -0.241845
v -0.130885 0.939693 -0.315985
v -0.245984 0.766044 -0.593858
v -0.331414 0.500000 -0.800103
v -0.376870 0.173648 -0.909844
v -0.376870 -0.173648 -0.909844
v -0.331414 -0.500000 -0.800103
v -0.245984 -0.766044 -0.593858
v -0.130886 -0.939693 -0.315985
v -0.000000 0.939693 -0.342020
v -0.000000 0.766044 -0.642787
v -0.000000 0.500000 -0.866025
v -0.000000 0.173648 -0.984808
v -0.000000 -0.173648 -0.984807
v 0.000000 -0.500000 -0.866025
v -0.000000 -0.766044 -0.642787
v -0.000000 -0.939693 -0.342020
v 0.130885 0.939693 -0.315985
v 0.245984 0.766044 -0.593858
v 0.331414 0.500000 -0.800103
v 0.376870 0.173648 -0.909844
v 0.376869 -0.173648 -0.909843
v 0.331414 -0.500000 -0.800103
v 0.245984 -0.766044 -0.593858
v 0.130885 -0.939693 -0.315985
v 0.241845 0.939693 -0.241845
v 0.454519 0.766044 -0.454519
v 0.612372 0.500000 -0.612372
v 0.696364 0.173648 -0.696364
v 0.696364 -0.173648 -0.696364
v 0.612372 -0.500000 -0.612372
v 0.454519 -0.766044 -0.454519
v 0.241845 -0.939693 -0.241845
v -0.000000 1.000000 0.000000
v 0.315985 0.939693 -0.130885
v 0.593858 0.766044 -0.245984
v 0.800103 0.500000 -0.331413
v 0.909843 0.173648 -0.376869
v 0.909843 -0.173648 -0.376869
v 0.800103 -0.500000 -0.331413
v 0.593858 -0.766044 -0.245984
v 0.315985 -0.939693 -0.130885
v 0.342020 0.939693 0.000000
v 0.642787 0.766044 0.000000
v 0.866025 0.500000 0.000000
v 0.984807 0.173648 0.000000
v 0.984807 -0.173648 0.000000
v 0.866025 -0.500000 0.000000
v 0.642787 -0.766044 0.000000
v 0.342020 -0.939693 0.000000
v 0.315985 0.939693 0.130885
v 0.593858 0.766044 0.245984
v 0.800103 0.500000 0.331414
v 0.909843 0.173648 0.376870
v 0.909843 -0.173648 0.376870
v 0.800103 -0.500000 0.331414
v 0.593858 -0.766044 0.245984
v 0.315985 -0.939693 0.130885
v 0.241844 0.939693 0.241845
v 0.454519 0.766044 0.454520
v 0.612372 0.500000 0.612372
v 0.696364 0.173648 0.696364
v 0.696364 -0.173648 0.696364
v 0.612372 -0.500000 0.612372
v 0.454519 -0.766044 0.454520
v 0.241844 -0.939693 0.241845
v 0.130885 0.939693 0.315985
v 0.245984 0.766044 0.593858
v 0.331413 0.500000 0.800103
v 0.376869 0.173648 0.909844
v 0.376869 -0.173648 0.909844
v 0.331413 -0.500000 0.800103
v 0.245984 -0.766044 0.593858
v 0.130885 -0.939693 0.315985
v -0.000000 0.939693 0.342020
v -0.000000 0.766044 0.642788
v -0.000000 0.500000 0.866025
v -0.000000 0.173648 0.984807
v -0.000001 -0.173648 0.984807
v -0.000000 -0.500000 0.866025
v -0.000000 -0.766044 0.642788
v -0.000000 -0.939693 0.342020
v -0.130886 0.939693 0.315985
v -0.245985 0.766044 0.593858
v -0.331414 0.500000 0.800103
v -0.376870 0.173648 0.909843
v -0.376870 -0.173648 0.909843
v -0.331414 -0.500000 0.800103
v -0.245985 -0.766044 0.593858
v -0.130886 -0.939693 0.315985
v -0.000000 -1.000000 0.000000
v -0.241845 0.939693 0.241845
v -0.454520 0.766044 0.454519
v -0.612373 0.500000 0.612372
v -0.696364 0.173648 0.696364
v -0.696364 -0.173648 0.696364
v -0.612373 -0.500000 0.612372
v -0.454520 -0.766044 0.454519
v -0.241845 -0.939693 0.241845
v -0.315985 0.939693 0.130885
v -0.593858 0.766044 0.245984
v -0.800103 0.500000 0.331413
v -0.909844 0.173648 0.376869
v -0.909844 -0.173648 0.376869
v -0.800103 -0.500000 0.331413
v -0.593858 -0.766044 0.245984
v -0.315985 -0.939693 0.130885
vt 0.0631 0.4015
vt 0.1182 0.4668
vt 0.0629 0.4816
vt 0.6739 0.5441
vt 0.7266 0.5076
vt 0.7300 0.5496
vt 0.8880 0.4095
vt 0.8423 0.5426
vt 0.8325 0.4363
vt 0.0080 0.4986
vt 0.0047 0.3907
vt 0.7790 0.4703
vt 0.7862 0.5491
vt 1.0047 0.3907
vt 0.9531 0.5157
vt 0.9458 0.3935
vt 0.1196 0.4244
vt 0.1739 0.4559
vt 0.8979 0.5310
vt 0.0222 0.6030
vt 0.7811 0.6285
vt 1.0080 0.4986
vt 0.9652 0.6366
vt 0.1245 0.5074
vt 0.7254 0.5912
vt 0.9039 0.6536
vt 0.0748 0.5581
vt 0.8413 0.6507
vt 0.1378 0.5406
vt 0.7127 0.6263
vt 0.9883 0.7539
vt 0.9069 0.7765
vt 0.0992 0.6231
vt 0.8249 0.7556
vt 0.0518 0.6975
vt 0.7606 0.7003
vt 1.0518 0.6975
vt 0.7720 0.8451
vt 0.1367 0.6663
vt 0.1074 0.7680
vt 0.7199 0.7515
vt 1.0472 0.8584
vt 0.1565 0.5615
vt 0.6930 0.6491
vt 0.9018 0.8995
vt 0.2115 0.8976
vt 0.0472 0.8584
vt 0.1781 0.5667
vt 0.6693 0.6548
vt 0.4967 0.9737
vt 0.1830 0.6775
vt 0.6466 0.8754
vt 0.1907 0.7880
vt 0.6624 0.7654
vt 0.2269 0.6530
vt 0.6465 0.6422
vt 0.4420 0.8525
vt 0.5485 0.8143
vt 0.2655 0.7453
vt 0.6097 0.7354
vt 0.3310 0.8213
vt 0.1989 0.5552
vt 0.5772 0.6744
vt 0.3704 0.7096
vt 0.2158 0.5291
vt 0.6292 0.6140
vt 0.4416 0.7294
vt 0.2595 0.6001
vt 0.5140 0.7162
vt 0.3097 0.6631
vt 0.6196 0.5756
vt 0.4458 0.6065
vt 0.2790 0.5296
vt 0.5047 0.6093
vt 0.3325 0.5637
vt 0.5631 0.5985
vt 0.3880 0.5905
vt 0.2266 0.4924
vt 0.4531 0.4843
vt 0.5080 0.5014
vt 0.3423 0.4574
vt 0.5629 0.5184
vt 0.3979 0.4690
vt 0.2300 0.4504
vt 0.6182 0.5332
vt 0.2862 0.4509
vt 0.4039 0.3464
vt 0.2254 0.4088
vt 0.5748 0.4419
vt 0.6245 0.4926
vt 0.4652 0.3634
vt 0.2811 0.3715
vt 0.5222 0.3970
vt 0.3413 0.3493
vt 0.2606 0.2997
vt 0.6378 0.4594
vt 0.5518 0.3025
vt 0.3249 0.2444
vt 0.5992 0.3769
vt 0.4069 0.2235
vt 0.2127 0.3737
vt 0.4883 0.2461
vt 0.6074 0.2320
vt 0.6367 0.3337
vt 0.4018 0.1005
vt 0.1930 0.3509
vt 0.6565 0.4385
vt 0.5472 0.1416
vt 0.2199 0.2485
vt 0.2720 0.1549
vt 0.9967 0.0263
vt 0.7115 0.1024
vt 0.1624 0.2346
vt 0.6781 0.4333
vt 0.6907 0.2120
vt 0.1466 0.1246
vt 0.6830 0.3225
vt 1.2720 0.1549
vt 1.4018 0.1005
vt 0.1693 0.3452
vt 0.0485 0.1857
vt 0.7269 0.3470
vt 1.1466 0.1246
vt 0.9420 0.1475
vt 0.1465 0.3578
vt 0.6989 0.4448
vt 0.8310 0.1787
vt 0.1097 0.2646
vt 0.7655 0.2547
vt 0.1292 0.3860
vt 0.7158 0.4709
vt 0.9416 0.2706
vt 0.8704 0.2904
vt 0.0772 0.3256
vt 0.8097 0.3369
vt 0.0140 0.2838
vt 0.7595 0.3999
vt 1.0485 0.1857
vt 1.0222 0.6030
vt 1.1074 0.7680
vt 1.2115 0.8976
vt 1.0140 0.2838
vn -0.4975 0.8618 -0.0990
vn -0.1735 -0.9842 -0.0345
vn -0.9237 -0.3362 -0.1837
vn -0.7573 0.6355 -0.1506
vn -0.7573 -0.6355 -0.1506
vn -0.9237 0.3362 -0.1837
vn -0.1735 0.9842 -0.0345
vn -0.4975 -0.8618 -0.0990
vn -0.9808 0.0000 -0.1951
vn -0.6420 0.6355 -0.4290
vn -0.6420 -0.6355 -0.4290
vn -0.7831 0.3362 -0.5232
vn -0.1471 0.9842 -0.0983
vn -0.4218 -0.8618 -0.2818
vn -0.8315 -0.0000 -0.5556
vn -0.4218 0.8618 -0.2818
vn -0.1471 -0.9842 -0.0983
vn -0.7831 -0.3362 -0.5232
vn -0.0983 0.9842 -0.1471
vn -0.2818 -0.8618 -0.4218
vn -0.5556 -0.0000 -0.8315
vn -0.2818 0.8618 -0.4218
vn -0.0983 -0.9842 -0.1471
vn -0.5232 -0.3362 -0.7831
vn -0.4290 0.6355 -0.6420
vn -0.4290 -0.6355 -0.6420
vn -0.5232 0.3362 -0.7831
vn -0.1837 -0.3362 -0.9237
vn -0.1506 0.6355 -0.7573
vn -0.1506 -0.6355 -0.7573
vn -0.1837 0.3362 -0.9237
vn -0.0345 0.9842 -0.1735
vn -0.0990 -0.8618 -0.4975
vn -0.1951 -0.0000 -0.9808
vn -0.0990 0.8618 -0.4975
vn -0.0345 -0.9842 -0.1735
vn 0.1837 0.3362 -0.9237
vn 0.0345 0.9842 -0.1735
vn 0.0990 -0.8618 -0.4975
vn 0.1951 -0.0000 -0.9808
vn 0.0990 0.8618 -0.4975
vn 0.0345 -0.9842 -0.1735
vn 0.1837 -0.3362 -0.9237
vn 0.1506 0.6355 -0.7573
vn 0.1506 -0.6355 -0.7573
vn 0.2818 0.8618 -0.4218
vn 0.0983 -0.9842 -0.1471
vn 0.5232 -0.3362 -0.7831
vn 0.4290 0.6355 -0.6420
vn 0.4290 -0.6355 -0.6420
vn 0.5232 0.3362 -0.7831
vn 0.0983 0.9842 -0.1471
vn 0.2818 -0.8618 -0.4218
vn 0.5556 -0.0000 -0.8315
vn 0.6420 -0.6355 -0.4290
vn 0.7831 0.3362 -0.5232
vn 0.1471 0.9842 -0.0983
vn 0.4218 -0.8618 -0.2818
vn 0.8315 -0.0000 -0.5556
vn 0.4218 0.8618 -0.2818
vn 0.1471 -0.9842 -0.0983
vn 0.7831 -0.3362 -0.5232
vn 0.6420 0.6355 -0.4290
vn 0.4975 -0.8618 -0.0990
vn 0.9808 -0.0000 -0.1951
vn 0.4975 0.8618 -0.0990
vn 0.1735 -0.9842 -0.0345
vn 0.9237 -0.3362 -0.1837
vn 0.7573 0.6355 -0.1506
vn 0.7573 -0.6355 -0.1506
vn 0.9237 0.3362 -0.1837
vn 0.1735 0.9842 -0.0345
vn 0.9237 -0.3362 0.1837
vn 0.7573 0.6355 0.1506
vn 0.7573 -0.6355 0.1506
vn 0.9237 0.3362 0.1837
vn 0.1735 0.9842 0.0345
vn 0.4975 -0.8618 0.0990
vn 0.9808 -0.0000 0.1951
vn 0.4975 0.8618 0.0990
vn 0.1735 -0.9842 0.0345
vn 0.7831 0.3362 0.5232
vn 0.1471 0.9842 0.0983
vn 0.4218 -0.8618 0.2818
vn 0.8315 -0.0000 0.5556
vn 0.4218 0.8618 0.2818
vn 0.1471 -0.9842 0.0983
vn 0.7831 -0.3362 0.5232
vn 0.6420 0.6355 0.4290
vn 0.6420 -0.6355 0.4290
vn 0.2818 0.8618 0.4218
vn 0.0983 -0.9842 0.1471
vn 0.5232 -0.3362 0.7831
vn 0.4290 0.6355 0.6420
vn 0.4290 -0.6355 0.6420
vn 0.5232 0.3362 0.7831
vn 0.0983 0.9842 0.1471
vn 0.2818 -0.8618 0.4218
vn 0.5556 -0.0000 0.8315
vn 0.1506 -0.6355 0.7573
vn 0.1837 0.3362 0.9237
vn 0.0345 0.9842 0.1735
vn 0.0990 -0.8618 0.4975
vn 0.1951 -0.0000 0.9808
vn 0.0990 0.8618 0.4975
vn 0.0345 -0.9842 0.1735
vn 0.1837 -0.3362 0.9237
vn 0.1506 0.6355 0.7573
vn -0.1951 -0.0000 0.9808
vn -0.0990 0.8618 0.4975
vn -0.0345 -0.9842 0.1735
vn -0.1837 -0.3362 0.9237
vn -0.1506 0.6355 0.7573
vn -0.1506 -0.6355 0.7573
vn -0.1837 0.3362 0.9237
vn -0.0345 0.9842 0.1735
vn -0.0990 -0.8618 0.4975
vn -0.4290 0.6355 0.6420
vn -0.4290 -0.6355 0.6420
vn -0.5232 0.3362 0.7831
vn -0.0983 0.9842 0.1471
vn -0.2818 -0.8618 0.4218
vn -0.5556 -0.0000 0.8315
vn -0.2818 0.8618 0.4218
vn -0.0983 -0.9842 0.1471
vn -0.5232 -0.3362 0.7831
vn -0.1471 0.9842 0.0983
vn -0.4218 -0.8618 0.2818
vn -0.8315 -0.0000 0.5556
vn -0.4218 0.8618 0.2818
vn -0.1471 -0.9842 0.0983
vn -0.7831 -0.3362 0.5232
vn -0.6420 0.6355 0.4290
vn -0.6420 -0.6355 0.4290
vn -0.7831 0.3362 0.5232
vn -0.1735 -0.9842 0.0345
vn -0.9237 -0.3362 0.1837
vn -0.7573 0.6355 0.1506
vn -0.7573 -0.6355 0.1506
vn -0.9237 0.3362 0.1837
vn -0.1735 0.9842 0.0345
vn -0.4975 -0.8618 0.0990
vn -0.9808 0.0000 0.1951
vn -0.4975 0.8618 0.0990
s off
f 2/1/1 9/2/1 10/3/1
f 114/4/2 8/5/2 16/6/2
f 5/7/3 14/8/3 6/9/3
f 2/1/4 11/10/4 3/11/4
f 7/12/5 14/8/5 15/13/5
f 3/14/6 12/15/6 4/16/6
f 1/17/7 57/18/7 9/2/7
f 7/12/8 16/6/8 8/5/8
f 4/16/9 13/19/9 5/7/9
f 10/3/10 19/20/10 11/10/10
f 14/8/11 23/21/11 15/13/11
f 11/22/12 20/23/12 12/15/12
f 9/2/13 57/18/13 17/24/13
f 15/13/14 24/25/14 16/6/14
f 13/19/15 20/23/15 21/26/15
f 9/2/16 18/27/16 10/3/16
f 114/4/17 16/6/17 24/25/17
f 13/19/18 22/28/18 14/8/18
f 17/24/19 57/18/19 25/29/19
f 23/21/20 32/30/20 24/25/20
f 21/26/21 28/31/21 29/32/21
f 18/27/22 25/29/22 26/33/22
f 114/4/23 24/25/23 32/30/23
f 22/28/24 29/32/24 30/34/24
f 19/20/25 26/33/25 27/35/25
f 22/28/26 31/36/26 23/21/26
f 20/23/27 27/37/27 28/31/27
f 29/32/28 38/38/28 30/34/28
f 27/35/29 34/39/29 35/40/29
f 30/34/30 39/41/30 31/36/30
f 27/37/31 36/42/31 28/31/31
f 25/29/32 57/18/32 33/43/32
f 31/36/33 40/44/33 32/30/33
f 28/31/34 37/45/34 29/32/34
f 25/29/35 34/39/35 26/33/35
f 114/4/36 32/30/36 40/44/36
f 35/40/37 44/46/37 36/47/37
f 33/43/38 57/18/38 41/48/38
f 39/41/39 48/49/39 40/44/39
f 36/42/40 45/50/40 37/45/40
f 33/43/41 42/51/41 34/39/41
f 114/4/42 40/44/42 48/49/42
f 37/45/43 46/52/43 38/38/43
f 35/40/44 42/51/44 43/53/44
f 38/38/45 47/54/45 39/41/45
f 41/48/46 50/55/46 42/51/46
f 114/4/47 48/49/47 56/56/47
f 46/52/48 53/57/48 54/58/48
f 43/53/49 50/55/49 51/59/49
f 46/52/50 55/60/50 47/54/50
f 44/46/51 51/59/51 52/61/51
f 41/48/52 57/18/52 49/62/52
f 47/54/53 56/56/53 48/49/53
f 45/50/54 52/61/54 53/57/54
f 54/58/55 64/63/55 55/60/55
f 51/59/56 61/64/56 52/61/56
f 49/62/57 57/18/57 58/65/57
f 55/60/58 65/66/58 56/56/58
f 53/57/59 61/64/59 62/67/59
f 49/62/60 59/68/60 50/55/60
f 114/4/61 56/56/61 65/66/61
f 53/57/62 63/69/62 54/58/62
f 50/55/63 60/70/63 51/59/63
f 64/63/64 73/71/64 65/66/64
f 61/64/65 70/72/65 62/67/65
f 58/65/66 67/73/66 59/68/66
f 114/4/67 65/66/67 73/71/67
f 62/67/68 71/74/68 63/69/68
f 59/68/69 68/75/69 60/70/69
f 64/63/70 71/74/70 72/76/70
f 60/70/71 69/77/71 61/64/71
f 58/65/72 57/18/72 66/78/72
f 71/74/73 78/79/73 79/80/73
f 67/73/74 76/81/74 68/75/74
f 71/74/75 80/82/75 72/76/75
f 68/75/76 77/83/76 69/77/76
f 66/78/77 57/18/77 74/84/77
f 72/76/78 81/85/78 73/71/78
f 69/77/79 78/79/79 70/72/79
f 66/78/80 75/86/80 67/73/80
f 114/4/81 73/71/81 81/85/81
f 76/81/82 85/87/82 77/83/82
f 74/84/83 57/18/83 82/88/83
f 81/85/84 88/89/84 89/90/84
f 78/79/85 85/87/85 86/91/85
f 74/84/86 83/92/86 75/86/86
f 114/4/87 81/85/87 89/90/87
f 78/79/88 87/93/88 79/80/88
f 75/86/89 84/94/89 76/81/89
f 80/82/90 87/93/90 88/89/90
f 82/88/91 91/95/91 83/92/91
f 114/4/92 89/90/92 97/96/92
f 86/91/93 95/97/93 87/93/93
f 83/92/94 92/98/94 84/94/94
f 88/89/95 95/97/95 96/99/95
f 84/94/96 93/100/96 85/87/96
f 82/88/97 57/18/97 90/101/97
f 89/90/98 96/99/98 97/96/98
f 86/91/99 93/100/99 94/102/99
f 96/99/100 103/103/100 104/104/100
f 92/98/101 101/105/101 93/100/101
f 90/101/102 57/18/102 98/106/102
f 96/99/103 105/107/103 97/96/103
f 94/102/104 101/105/104 102/108/104
f 90/101/105 99/109/105 91/95/105
f 114/4/106 97/96/106 105/107/106
f 94/102/107 103/103/107 95/97/107
f 92/98/108 99/109/108 100/110/108
f 102/108/109 109/111/109 110/112/109
f 98/106/110 107/113/110 99/109/110
f 114/4/111 105/107/111 113/114/111
f 103/103/112 110/112/112 111/115/112
f 99/109/113 108/116/113 100/110/113
f 104/104/114 111/115/114 112/117/114
f 100/118/115 109/111/115 101/119/115
f 98/106/116 57/18/116 106/120/116
f 104/104/117 113/114/117 105/107/117
f 107/113/118 117/121/118 108/116/118
f 111/115/119 121/122/119 112/117/119
f 108/123/120 118/124/120 109/111/120
f 106/120/121 57/18/121 115/125/121
f 113/114/122 121/122/122 122/126/122
f 110/112/123 118/124/123 119/127/123
f 106/120/124 116/128/124 107/113/124
f 114/4/125 113/114/125 122/126/125
f 111/115/126 119/127/126 120/129/126
f 115/125/127 57/18/127 123/130/127
f 121/122/128 130/131/128 122/126/128
f 119/127/129 126/132/129 127/133/129
f 115/125/130 124/134/130 116/128/130
f 114/4/131 122/126/131 130/131/131
f 119/127/132 128/135/132 120/129/132
f 116/128/133 125/136/133 117/121/133
f 120/129/134 129/137/134 121/122/134
f 117/138/135 126/132/135 118/124/135
f 114/4/136 130/131/136 8/5/136
f 127/133/137 6/9/137 128/135/137
f 125/136/138 2/1/138 3/11/138
f 128/135/139 7/12/139 129/137/139
f 126/132/140 3/14/140 4/16/140
f 123/130/141 57/18/141 1/17/141
f 129/137/142 8/5/142 130/131/142
f 126/132/143 5/7/143 127/133/143
f 124/134/144 1/17/144 2/1/144
f 2/1/1 1/17/1 9/2/1
f 5/7/3 13/19/3 14/8/3
f 2/1/4 10/3/4 11/10/4
f 7/12/5 6/9/5 14/8/5
f 3/14/6 11/22/6 12/15/6
f 7/12/8 15/13/8 16/6/8
f 4/16/9 12/15/9 13/19/9
f 10/3/10 18/27/10 19/20/10
f 14/8/11 22/28/11 23/21/11
f 11/22/12 19/139/12 20/23/12
f 15/13/14 23/21/14 24/25/14
f 13/19/15 12/15/15 20/23/15
f 9/2/16 17/24/16 18/27/16
f 13/19/18 21/26/18 22/28/18
f 23/21/20 31/36/20 32/30/20
f 21/26/21 20/23/21 28/31/21
f 18/27/22 17/24/22 25/29/22
f 22/28/24 21/26/24 29/32/24
f 19/20/25 18/27/25 26/33/25
f 22/28/26 30/34/26 31/36/26
f 20/23/27 19/139/27 27/37/27
f 29/32/28 37/45/28 38/38/28
f 27/35/29 26/33/29 34/39/29
f 30/34/30 38/38/30 39/41/30
f 27/37/31 35/140/31 36/42/31
f 31/36/33 39/41/33 40/44/33
f 28/31/34 36/42/34 37/45/34
f 25/29/35 33/43/35 34/39/35
f 35/40/37 43/53/37 44/46/37
f 39/41/39 47/54/39 48/49/39
f 36/42/40 44/141/40 45/50/40
f 33/43/41 41/48/41 42/51/41
f 37/45/43 45/50/43 46/52/43
f 35/40/44 34/39/44 42/51/44
f 38/38/45 46/52/45 47/54/45
f 41/48/46 49/62/46 50/55/46
f 46/52/48 45/50/48 53/57/48
f 43/53/49 42/51/49 50/55/49
f 46/52/50 54/58/50 55/60/50
f 44/46/51 43/53/51 51/59/51
f 47/54/53 55/60/53 56/56/53
f 45/50/54 44/46/54 52/61/54
f 54/58/55 63/69/55 64/63/55
f 51/59/56 60/70/56 61/64/56
f 55/60/58 64/63/58 65/66/58
f 53/57/59 52/61/59 61/64/59
f 49/62/60 58/65/60 59/68/60
f 53/57/62 62/67/62 63/69/62
f 50/55/63 59/68/63 60/70/63
f 64/63/64 72/76/64 73/71/64
f 61/64/65 69/77/65 70/72/65
f 58/65/66 66/78/66 67/73/66
f 62/67/68 70/72/68 71/74/68
f 59/68/69 67/73/69 68/75/69
f 64/63/70 63/69/70 71/74/70
f 60/70/71 68/75/71 69/77/71
f 71/74/73 70/72/73 78/79/73
f 67/73/74 75/86/74 76/81/74
f 71/74/75 79/80/75 80/82/75
f 68/75/76 76/81/76 77/83/76
f 72/76/78 80/82/78 81/85/78
f 69/77/79 77/83/79 78/79/79
f 66/78/80 74/84/80 75/86/80
f 76/81/82 84/94/82 85/87/82
f 81/85/84 80/82/84 88/89/84
f 78/79/85 77/83/85 85/87/85
f 74/84/86 82/88/86 83/92/86
f 78/79/88 86/91/88 87/93/88
f 75/86/89 83/92/89 84/94/89
f 80/82/90 79/80/90 87/93/90
f 82/88/91 90/101/91 91/95/91
f 86/91/93 94/102/93 95/97/93
f 83/92/94 91/95/94 92/98/94
f 88/89/95 87/93/95 95/97/95
f 84/94/96 92/98/96 93/100/96
f 89/90/98 88/89/98 96/99/98
f 86/91/99 85/87/99 93/100/99
f 96/99/100 95/97/100 103/103/100
f 92/98/101 100/110/101 101/105/101
f 96/99/103 104/104/103 105/107/103
f 94/102/104 93/100/104 101/105/104
f 90/101/105 98/106/105 99/109/105
f 94/102/107 102/108/107 103/103/107
f 92/98/108 91/95/108 99/109/108
f 102/108/109 101/119/109 109/111/109
f 98/106/110 106/120/110 107/113/110
f 103/103/112 102/108/112 110/112/112
f 99/109/113 107/113/113 108/116/113
f 104/104/114 103/103/114 111/115/114
f 100/118/115 108/123/115 109/111/115
f 104/104/117 112/117/117 113/114/117
f 107/113/118 116/128/118 117/121/118
f 111/115/119 120/129/119 121/122/119
f 108/123/120 117/138/120 118/124/120
f 113/114/122 112/117/122 121/122/122
f 110/112/123 109/111/123 118/124/123
f 106/120/124 115/125/124 116/128/124
f 111/115/126 110/112/126 119/127/126
f 121/122/128 129/137/128 130/131/128
f 119/127/129 118/124/129 126/132/129
f 115/125/130 123/130/130 124/134/130
f 119/127/132 127/133/132 128/135/132
f 116/128/133 124/134/133 125/136/133
f 120/129/134 128/135/134 129/137/134
f 117/138/135 125/142/135 126/132/135
f 127/133/137 5/7/137 6/9/137
f 125/136/138 124/134/138 2/1/138
f 128/135/139 6/9/139 7/12/139
f 126/132/140 125/142/140 3/14/140
f 129/137/142 7/12/142 8/5/142
f 126/132/143 4/16/143 5/7/143
f 124/134/144 123/130/144 1/17/144
