# Blender v2.78 (sub 0) OBJ File: ''
# www.blender.org
o Icosphere
v 0.000000 -1.000000 0.000000
v 0.723607 -0.447220 0.525725
v -0.276388 -0.447220 0.850649
v -0.894426 -0.447216 0.000000
v -0.276388 -0.447220 -0.850649
v 0.723607 -0.447220 -0.525725
v 0.276388 0.447220 0.850649
v -0.723607 0.447220 0.525725
v -0.723607 0.447220 -0.525725
v 0.276388 0.447220 -0.850649
v 0.894426 0.447216 0.000000
v 0.000000 1.000000 0.000000
v -0.232822 -0.657519 0.716563
v -0.162456 -0.850654 0.499995
v -0.077607 -0.967950 0.238853
v 0.203181 -0.967950 0.147618
v 0.425323 -0.850654 0.309011
v 0.609547 -0.657519 0.442856
v 0.531941 -0.502302 0.681712
v 0.262869 -0.525738 0.809012
v -0.029639 -0.502302 0.864184
v 0.812729 -0.502301 -0.295238
v 0.850648 -0.525736 0.000000
v 0.812729 -0.502301 0.295238
v 0.203181 -0.967950 -0.147618
v 0.425323 -0.850654 -0.309011
v 0.609547 -0.657519 -0.442856
v -0.753442 -0.657515 0.000000
v -0.525730 -0.850652 0.000000
v -0.251147 -0.967949 0.000000
v -0.483971 -0.502302 0.716565
v -0.688189 -0.525736 0.499997
v -0.831051 -0.502299 0.238853
v -0.232822 -0.657519 -0.716563
v -0.162456 -0.850654 -0.499995
v -0.077607 -0.967950 -0.238853
v -0.831051 -0.502299 -0.238853
v -0.688189 -0.525736 -0.499997
v -0.483971 -0.502302 -0.716565
v -0.029639 -0.502302 -0.864184
v 0.262869 -0.525738 -0.809012
v 0.531941 -0.502302 -0.681712
v 0.956626 0.251149 0.147618
v 0.951058 -0.000000 0.309013
v 0.860698 -0.251151 0.442858
v 0.860698 -0.251151 -0.442858
v 0.951058 0.000000 -0.309013
v 0.956626 0.251149 -0.147618
v 0.155215 0.251152 0.955422
v 0.000000 -0.000000 1.000000
v -0.155215 -0.251152 0.955422
v 0.687159 -0.251152 0.681715
v 0.587786 0.000000 0.809017
v 0.436007 0.251152 0.864188
v -0.860698 0.251151 0.442858
v -0.951058 -0.000000 0.309013
v -0.956626 -0.251149 0.147618
v -0.436007 -0.251152 0.864188
v -0.587786 0.000000 0.809017
v -0.687159 0.251152 0.681715
v -0.687159 0.251152 -0.681715
v -0.587786 -0.000000 -0.809017
v -0.436007 -0.251152 -0.864188
v -0.956626 -0.251149 -0.147618
v -0.951058 0.000000 -0.309013
v -0.860698 0.251151 -0.442858
v 0.436007 0.251152 -0.864188
v 0.587786 -0.000000 -0.809017
v 0.687159 -0.251152 -0.681715
v -0.155215 -0.251152 -0.955422
v 0.000000 0.000000 -1.000000
v 0.155215 0.251152 -0.955422
v 0.831051 0.502299 0.238853
v 0.688189 0.525736 0.499997
v 0.483971 0.502302 0.716565
v 0.029639 0.502302 0.864184
v -0.262869 0.525738 0.809012
v -0.531941 0.502302 0.681712
v -0.812729 0.502301 0.295238
v -0.850648 0.525736 0.000000
v -0.812729 0.502301 -0.295238
v -0.531941 0.502302 -0.681712
v -0.262869 0.525738 -0.809012
v 0.029639 0.502302 -0.864184
v 0.483971 0.502302 -0.716565
v 0.688189 0.525736 -0.499997
v 0.831051 0.502299 -0.238853
v 0.077607 0.967950 0.238853
v 0.162456 0.850654 0.499995
v 0.232822 0.657519 0.716563
v 0.753442 0.657515 0.000000
v 0.525730 0.850652 0.000000
v 0.251147 0.967949 0.000000
v -0.203181 0.967950 0.147618
v -0.425323 0.850654 0.309011
v -0.609547 0.657519 0.442856
v -0.203181 0.967950 -0.147618
v -0.425323 0.850654 -0.309011
v -0.609547 0.657519 -0.442856
v 0.077607 0.967950 -0.238853
v 0.162456 0.850654 -0.499995
v 0.232822 0.657519 -0.716563
v 0.361800 0.894429 -0.262863
v 0.638194 0.723610 -0.262864
v 0.447209 0.723612 -0.525728
v -0.138197 0.894430 -0.425319
v -0.052790 0.723612 -0.688185
v -0.361804 0.723612 -0.587778
v -0.447210 0.894429 0.000000
v -0.670817 0.723611 -0.162457
v -0.670817 0.723611 0.162457
v -0.138197 0.894430 0.425319
v -0.361804 0.723612 0.587778
v -0.052790 0.723612 0.688185
v 0.361800 0.894429 0.262863
v 0.447209 0.723612 0.525728
v 0.638194 0.723610 0.262864
v 0.861804 0.276396 -0.425322
v 0.809019 0.000000 -0.587782
v 0.670821 0.276397 -0.688189
v -0.138199 0.276397 -0.951055
v -0.309016 -0.000000 -0.951057
v -0.447215 0.276397 -0.850649
v -0.947213 0.276396 -0.162458
v -1.000000 0.000001 0.000000
v -0.947213 0.276397 0.162458
v -0.447216 0.276397 0.850648
v -0.309017 -0.000001 0.951056
v -0.138199 0.276397 0.951055
v 0.670820 0.276396 0.688190
v 0.809019 -0.000002 0.587783
v 0.861804 0.276394 0.425323
v 0.309017 -0.000000 -0.951056
v 0.447216 -0.276398 -0.850648
v 0.138199 -0.276398 -0.951055
v -0.809018 -0.000000 -0.587783
v -0.670819 -0.276397 -0.688191
v -0.861803 -0.276396 -0.425324
v -0.809018 0.000000 0.587783
v -0.861803 -0.276396 0.425324
v -0.670819 -0.276397 0.688191
v 0.309017 0.000000 0.951056
v 0.138199 -0.276398 0.951055
v 0.447216 -0.276398 0.850648
v 1.000000 0.000000 0.000000
v 0.947213 -0.276396 0.162458
v 0.947213 -0.276396 -0.162458
v 0.361803 -0.723612 -0.587779
v 0.138197 -0.894429 -0.425321
v 0.052789 -0.723611 -0.688186
v -0.447211 -0.723612 -0.525727
v -0.361801 -0.894429 -0.262863
v -0.638195 -0.723609 -0.262863
v -0.638195 -0.723609 0.262864
v -0.361801 -0.894428 0.262864
v -0.447211 -0.723610 0.525729
v 0.670817 -0.723611 -0.162457
v 0.670818 -0.723610 0.162458
v 0.447211 -0.894428 0.000001
v 0.052790 -0.723612 0.688185
v 0.138199 -0.894429 0.425321
v 0.361805 -0.723611 0.587779
vt 0.6739 0.5441
vt 0.6354 0.5183
vt 0.6738 0.4633
vt 0.5057 0.4329
vt 0.5450 0.4561
vt 0.5075 0.5136
vt 0.7123 0.5178
vt 0.6990 0.6085
vt 0.6490 0.6088
vt 0.4677 0.4630
vt 0.6731 0.1917
vt 0.6141 0.2286
vt 0.6139 0.1343
vt 0.8418 0.4311
vt 0.8175 0.3647
vt 0.8691 0.3690
vt 0.8321 0.7831
vt 0.8354 0.7024
vt 0.8886 0.7527
vt 0.5162 0.7848
vt 0.5705 0.8393
vt 0.4695 0.8483
vt 0.4784 0.3710
vt 0.7316 0.1335
vt 0.8799 0.4610
vt 0.8787 0.8463
vt 0.4593 0.7547
vt 0.3321 0.2169
vt 0.3354 0.2976
vt 0.2797 0.2563
vt 0.0162 0.2152
vt 0.0705 0.1607
vt 0.0687 0.2550
vt 0.0057 0.5671
vt 0.0075 0.4864
vt 0.0450 0.5439
vt 0.1731 0.8083
vt 0.1141 0.7714
vt 0.1734 0.7275
vt 0.3418 0.5689
vt 0.3175 0.6353
vt 0.3025 0.5454
vt 0.2123 0.4822
vt 0.1738 0.5367
vt 0.1739 0.4559
vt 0.2572 0.5144
vt 0.2173 0.5758
vt 0.2682 0.6120
vt 0.1736 0.6321
vt 0.2237 0.6790
vt 0.2821 0.7091
vt 0.2325 0.7721
vt 0.1354 0.4817
vt 0.1301 0.5752
vt 0.1233 0.6783
vt 0.0904 0.5133
vt 0.0791 0.6109
vt 0.0649 0.7078
vt 0.0298 0.6337
vt 0.1490 0.3912
vt 0.1013 0.4157
vt 0.0513 0.4507
vt 0.1144 0.3186
vt 0.0590 0.3478
vt 0.0098 0.3911
vt 0.0126 0.2958
vt 0.1990 0.3915
vt 0.1742 0.3084
vt 0.1339 0.2228
vt 0.2339 0.3193
vt 0.2149 0.2234
vt 0.1750 0.1321
vt 0.2786 0.1620
vt 0.2465 0.4166
vt 0.2890 0.3492
vt 0.2965 0.4521
vt 0.3380 0.3929
vt 0.3401 0.4882
vt 0.3691 0.6310
vt 0.4079 0.6988
vt 0.3458 0.7163
vt 0.3938 0.7969
vt 0.3047 0.8043
vt 0.3593 0.8920
vt 0.2316 0.8665
vt 0.1139 0.8657
vt 0.9872 0.8901
vt 1.0420 0.8027
vt 1.1139 0.8657
vt 0.9536 0.7948
vt 0.0420 0.8027
vt 1.0015 0.7145
vt 0.0015 0.7145
vt 0.9397 0.6968
vt 0.9784 0.6290
vt 1.0298 0.6337
vt 1.0057 0.5671
vt 0.9677 0.5370
vt 1.0075 0.4864
vt 0.9238 0.4990
vt 0.9655 0.4430
vt 0.9167 0.3999
vt 1.0098 0.3911
vt 0.9628 0.3392
vt 1.0126 0.2958
vt 0.9079 0.3012
vt 0.9593 0.2453
vt 1.0162 0.2152
vt 0.9695 0.1517
vt 1.0705 0.1607
vt 0.8593 0.1080
vt 1.0403 0.0687
vt 0.6701 0.0441
vt 0.0403 0.0687
vt 0.3105 0.0702
vt 0.4872 0.1099
vt 0.3787 0.1537
vt 0.3886 0.2473
vt 0.4397 0.3032
vt 0.3850 0.3413
vt 0.4309 0.4020
vt 0.3822 0.4450
vt 0.4238 0.5010
vt 0.3799 0.5390
vt 0.1701 0.9559
vt 0.5403 0.9313
vt 1.1701 0.9559
vt 0.8104 0.9298
vt 0.6750 0.8679
vt 0.7786 0.8380
vt 0.9309 0.5980
vt 0.8850 0.6587
vt 0.8822 0.5550
vt 0.8380 0.6071
vt 0.8401 0.5118
vt 0.8938 0.2031
vt 0.8458 0.2837
vt 0.8047 0.1957
vt 0.7821 0.2909
vt 0.7325 0.2279
vt 0.4536 0.2052
vt 0.5420 0.1973
vt 0.5015 0.2855
vt 0.5649 0.2922
vt 0.5298 0.3663
vt 0.4167 0.6001
vt 0.4655 0.5570
vt 0.4628 0.6608
vt 0.5098 0.6089
vt 0.5126 0.7042
vt 0.5687 0.7450
vt 0.6144 0.6814
vt 0.6339 0.7772
vt 0.6742 0.6916
vt 0.7149 0.7766
vt 0.7339 0.6807
vt 0.7797 0.7437
vt 0.7890 0.6508
vt 0.7465 0.5834
vt 0.7965 0.5479
vt 0.7572 0.4856
vt 0.8025 0.4546
vt 0.7682 0.3880
vt 0.7173 0.4242
vt 0.7237 0.3210
vt 0.6736 0.3679
vt 0.6734 0.2725
vt 0.5590 0.6522
vt 0.5513 0.5493
vt 0.6013 0.5843
vt 0.5904 0.4867
vt 0.6233 0.3217
vt 0.6301 0.4248
vt 0.5791 0.3891
vn 0.0000 -1.0000 0.0000
vn 0.2109 -0.9654 0.1533
vn -0.0806 -0.9654 0.2480
vn 0.7236 -0.4472 0.5257
vn 0.6042 -0.6650 0.4390
vn 0.8152 -0.5038 0.2857
vn -0.2608 -0.9654 0.0000
vn -0.0806 -0.9654 -0.2480
vn 0.2109 -0.9654 -0.1533
vn 0.8650 -0.2430 0.4390
vn -0.2764 -0.4472 0.8506
vn -0.0198 -0.5038 0.8636
vn -0.1502 -0.2430 0.9583
vn -0.8944 -0.4472 0.0000
vn -0.8274 -0.5038 0.2480
vn -0.9578 -0.2430 0.1533
vn -0.2764 -0.4472 -0.8506
vn -0.4915 -0.5038 -0.7103
vn -0.4417 -0.2430 -0.8636
vn 0.7236 -0.4472 -0.5257
vn 0.5236 -0.5038 -0.6870
vn 0.6848 -0.2430 -0.6870
vn 0.6848 -0.2430 0.6870
vn -0.4417 -0.2430 0.8636
vn -0.9578 -0.2430 -0.1533
vn -0.1502 -0.2430 -0.9583
vn 0.8650 -0.2430 -0.4390
vn 0.2764 0.4472 0.8506
vn 0.4915 0.5038 0.7103
vn 0.2308 0.6650 0.7103
vn -0.7236 0.4472 0.5257
vn -0.5236 0.5038 0.6870
vn -0.6042 0.6650 0.4390
vn -0.7236 0.4472 -0.5257
vn -0.8152 0.5038 -0.2857
vn -0.6042 0.6650 -0.4390
vn 0.2764 0.4472 -0.8506
vn 0.0198 0.5038 -0.8636
vn 0.2308 0.6650 -0.7103
vn 0.8944 0.4472 0.0000
vn 0.8274 0.5038 -0.2480
vn 0.7468 0.6650 0.0000
vn 0.2608 0.9654 0.0000
vn 0.0806 0.9654 -0.2480
vn 0.0000 1.0000 0.0000
vn 0.5257 0.8506 0.0000
vn 0.3682 0.8904 -0.2675
vn 0.6317 0.7275 -0.2675
vn 0.1625 0.8506 -0.5000
vn 0.4496 0.7275 -0.5181
vn 0.6882 0.5257 -0.5000
vn 0.4915 0.5038 -0.7103
vn -0.2109 0.9654 -0.1533
vn -0.1406 0.8904 -0.4328
vn -0.0592 0.7275 -0.6835
vn -0.4253 0.8506 -0.3090
vn -0.3538 0.7275 -0.5877
vn -0.2629 0.5257 -0.8090
vn -0.5236 0.5038 -0.6870
vn -0.2109 0.9654 0.1533
vn -0.4551 0.8904 0.0000
vn -0.6683 0.7275 -0.1549
vn -0.4253 0.8506 0.3090
vn -0.6683 0.7275 0.1549
vn -0.8506 0.5257 0.0000
vn -0.8152 0.5038 0.2857
vn 0.0806 0.9654 0.2480
vn -0.1406 0.8904 0.4328
vn -0.3538 0.7275 0.5877
vn 0.1625 0.8506 0.5000
vn -0.0592 0.7275 0.6835
vn -0.2629 0.5257 0.8090
vn 0.0198 0.5038 0.8636
vn 0.3682 0.8904 0.2675
vn 0.4496 0.7275 0.5181
vn 0.6317 0.7275 0.2675
vn 0.6882 0.5257 0.5000
vn 0.8274 0.5038 0.2480
vn 0.9578 0.2430 -0.1533
vn 0.9510 0.0000 -0.3090
vn 0.8593 0.2724 -0.4328
vn 0.8090 0.0089 -0.5878
vn 0.6772 0.2724 -0.6835
vn 0.5878 0.0000 -0.8090
vn 0.4417 0.2430 -0.8636
vn 0.1502 0.2430 -0.9583
vn 0.0000 0.0000 -1.0000
vn -0.1461 0.2724 -0.9510
vn -0.3090 0.0089 -0.9510
vn -0.4407 0.2724 -0.8553
vn -0.5878 0.0000 -0.8090
vn -0.6848 0.2430 -0.6870
vn -0.8650 0.2430 -0.4390
vn -0.9510 0.0000 -0.3090
vn -0.9496 0.2724 -0.1549
vn -0.9999 0.0089 0.0000
vn -0.9496 0.2724 0.1549
vn -0.9510 0.0000 0.3090
vn -0.8650 0.2430 0.4390
vn -0.6848 0.2430 0.6870
vn -0.5878 0.0000 0.8090
vn -0.4407 0.2724 0.8553
vn -0.3090 0.0089 0.9510
vn -0.1461 0.2724 0.9510
vn 0.0000 0.0000 1.0000
vn 0.1502 0.2430 0.9583
vn 0.4417 0.2430 0.8636
vn 0.5878 0.0000 0.8090
vn 0.6772 0.2724 0.6835
vn 0.8090 0.0089 0.5878
vn 0.8593 0.2724 0.4328
vn 0.9510 0.0000 0.3090
vn 0.9578 0.2430 0.1533
vn 0.3090 -0.0089 -0.9510
vn 0.4407 -0.2724 -0.8553
vn 0.1461 -0.2724 -0.9510
vn 0.2629 -0.5257 -0.8090
vn -0.0198 -0.5038 -0.8636
vn -0.8090 -0.0089 -0.5878
vn -0.6772 -0.2724 -0.6835
vn -0.8593 -0.2724 -0.4328
vn -0.6882 -0.5257 -0.5000
vn -0.8274 -0.5038 -0.2480
vn -0.8090 -0.0089 0.5878
vn -0.8593 -0.2724 0.4328
vn -0.6772 -0.2724 0.6835
vn -0.6882 -0.5257 0.5000
vn -0.4915 -0.5038 0.7103
vn 0.3090 -0.0089 0.9510
vn 0.1461 -0.2724 0.9510
vn 0.4407 -0.2724 0.8553
vn 0.2629 -0.5257 0.8090
vn 0.5236 -0.5038 0.6870
vn 0.9999 -0.0089 0.0000
vn 0.9496 -0.2724 0.1549
vn 0.9496 -0.2724 -0.1549
vn 0.8506 -0.5257 0.0000
vn 0.8152 -0.5038 -0.2857
vn 0.6042 -0.6650 -0.4390
vn 0.4253 -0.8506 -0.3090
vn 0.3538 -0.7275 -0.5878
vn 0.1406 -0.8904 -0.4328
vn 0.0592 -0.7275 -0.6835
vn -0.1625 -0.8506 -0.5000
vn -0.2308 -0.6650 -0.7103
vn -0.4496 -0.7275 -0.5181
vn -0.3682 -0.8904 -0.2675
vn -0.6317 -0.7275 -0.2675
vn -0.5257 -0.8506 0.0000
vn -0.7468 -0.6650 0.0000
vn -0.6317 -0.7275 0.2675
vn -0.3682 -0.8904 0.2675
vn -0.4496 -0.7275 0.5181
vn -0.1625 -0.8506 0.5000
vn -0.2308 -0.6650 0.7103
vn 0.6683 -0.7275 -0.1549
vn 0.6683 -0.7275 0.1549
vn 0.4551 -0.8904 0.0000
vn 0.4253 -0.8506 0.3090
vn 0.0592 -0.7275 0.6835
vn 0.1406 -0.8904 0.4328
vn 0.3538 -0.7275 0.5878
s 1
f 1/1/1 16/2/2 15/3/3
f 2/4/4 18/5/5 24/6/6
f 1/1/1 15/3/3 30/7/7
f 1/1/1 30/7/7 36/8/8
f 1/1/1 36/8/8 25/9/9
f 2/4/4 24/6/6 45/10/10
f 3/11/11 21/12/12 51/13/13
f 4/14/14 33/15/15 57/16/16
f 5/17/17 39/18/18 63/19/19
f 6/20/20 42/21/21 69/22/22
f 2/4/4 45/10/10 52/23/23
f 3/11/11 51/13/13 58/24/24
f 4/14/14 57/16/16 64/25/25
f 5/17/17 63/19/19 70/26/26
f 6/20/20 69/22/22 46/27/27
f 7/28/28 75/29/29 90/30/30
f 8/31/31 78/32/32 96/33/33
f 9/34/34 81/35/35 99/36/36
f 10/37/37 84/38/38 102/39/39
f 11/40/40 87/41/41 91/42/42
f 93/43/43 100/44/44 12/45/45
f 92/46/46 103/47/47 93/43/43
f 91/42/42 104/48/48 92/46/46
f 93/43/43 103/47/47 100/44/44
f 103/47/47 101/49/49 100/44/44
f 92/46/46 104/48/48 103/47/47
f 104/48/48 105/50/50 103/47/47
f 103/47/47 105/50/50 101/49/49
f 105/50/50 102/39/39 101/49/49
f 91/42/42 87/41/41 104/48/48
f 87/41/41 86/51/51 104/48/48
f 104/48/48 86/51/51 105/50/50
f 86/51/51 85/52/52 105/50/50
f 105/50/50 85/52/52 102/39/39
f 85/52/52 10/37/37 102/39/39
f 100/44/44 97/53/53 12/45/45
f 101/49/49 106/54/54 100/44/44
f 102/39/39 107/55/55 101/49/49
f 100/44/44 106/54/54 97/53/53
f 106/54/54 98/56/56 97/53/53
f 101/49/49 107/55/55 106/54/54
f 107/55/55 108/57/57 106/54/54
f 106/54/54 108/57/57 98/56/56
f 108/57/57 99/36/36 98/56/56
f 102/39/39 84/38/38 107/55/55
f 84/38/38 83/58/58 107/55/55
f 107/55/55 83/58/58 108/57/57
f 83/58/58 82/59/59 108/57/57
f 108/57/57 82/59/59 99/36/36
f 82/59/59 9/34/34 99/36/36
f 97/53/53 94/60/60 12/45/45
f 98/56/56 109/61/61 97/53/53
f 99/36/36 110/62/62 98/56/56
f 97/53/53 109/61/61 94/60/60
f 109/61/61 95/63/63 94/60/60
f 98/56/56 110/62/62 109/61/61
f 110/62/62 111/64/64 109/61/61
f 109/61/61 111/64/64 95/63/63
f 111/64/64 96/33/33 95/63/63
f 99/36/36 81/35/35 110/62/62
f 81/35/35 80/65/65 110/62/62
f 110/62/62 80/65/65 111/64/64
f 80/65/65 79/66/66 111/64/64
f 111/64/64 79/66/66 96/33/33
f 79/66/66 8/31/31 96/33/33
f 94/60/60 88/67/67 12/45/45
f 95/63/63 112/68/68 94/60/60
f 96/33/33 113/69/69 95/63/63
f 94/60/60 112/68/68 88/67/67
f 112/68/68 89/70/70 88/67/67
f 95/63/63 113/69/69 112/68/68
f 113/69/69 114/71/71 112/68/68
f 112/68/68 114/71/71 89/70/70
f 114/71/71 90/30/30 89/70/70
f 96/33/33 78/32/32 113/69/69
f 78/32/32 77/72/72 113/69/69
f 113/69/69 77/72/72 114/71/71
f 77/72/72 76/73/73 114/71/71
f 114/71/71 76/73/73 90/30/30
f 76/73/73 7/28/28 90/30/30
f 88/67/67 93/43/43 12/45/45
f 89/70/70 115/74/74 88/67/67
f 90/30/30 116/75/75 89/70/70
f 88/67/67 115/74/74 93/43/43
f 115/74/74 92/46/46 93/43/43
f 89/70/70 116/75/75 115/74/74
f 116/75/75 117/76/76 115/74/74
f 115/74/74 117/76/76 92/46/46
f 117/76/76 91/42/42 92/46/46
f 90/30/30 75/29/29 116/75/75
f 75/29/29 74/77/77 116/75/75
f 116/75/75 74/77/77 117/76/76
f 74/77/77 73/78/78 117/76/76
f 117/76/76 73/78/78 91/42/42
f 73/78/78 11/40/40 91/42/42
f 48/79/79 87/41/41 11/40/40
f 47/80/80 118/81/81 48/79/79
f 46/27/27 119/82/82 47/80/80
f 48/79/79 118/81/81 87/41/41
f 118/81/81 86/51/51 87/41/41
f 47/80/80 119/82/82 118/81/81
f 119/82/82 120/83/83 118/81/81
f 118/81/81 120/83/83 86/51/51
f 120/83/83 85/52/52 86/51/51
f 46/27/27 69/22/22 119/82/82
f 69/22/22 68/84/84 119/82/82
f 119/82/82 68/84/84 120/83/83
f 68/84/84 67/85/85 120/83/83
f 120/83/83 67/85/85 85/52/52
f 67/85/85 10/37/37 85/52/52
f 72/86/86 84/38/38 10/37/37
f 71/87/87 121/88/88 72/89/86
f 70/26/26 122/90/89 71/87/87
f 72/86/86 121/91/88 84/38/38
f 121/91/88 83/58/58 84/38/38
f 71/87/87 122/90/89 121/88/88
f 122/90/89 123/92/90 121/88/88
f 121/91/88 123/93/90 83/58/58
f 123/93/90 82/59/59 83/58/58
f 70/26/26 63/19/19 122/90/89
f 63/19/19 62/94/91 122/90/89
f 122/90/89 62/94/91 123/92/90
f 62/94/91 61/95/92 123/92/90
f 123/92/90 61/95/92 82/96/59
f 61/95/92 9/97/34 82/96/59
f 66/98/93 81/99/35 9/97/34
f 65/100/94 124/101/95 66/98/93
f 64/25/25 125/102/96 65/100/94
f 66/98/93 124/101/95 81/99/35
f 124/101/95 80/103/65 81/99/35
f 65/100/94 125/102/96 124/101/95
f 125/102/96 126/104/97 124/101/95
f 124/101/95 126/104/97 80/103/65
f 126/104/97 79/105/66 80/103/65
f 64/25/25 57/16/16 125/102/96
f 57/16/16 56/106/98 125/102/96
f 125/102/96 56/106/98 126/104/97
f 56/106/98 55/107/99 126/104/97
f 126/104/97 55/107/99 79/105/66
f 55/107/99 8/108/31 79/105/66
f 60/109/100 78/110/32 8/108/31
f 59/111/101 127/112/102 60/109/100
f 58/24/24 128/113/103 59/111/101
f 60/109/100 127/112/102 78/110/32
f 127/114/102 77/72/72 78/32/32
f 59/111/101 128/113/103 127/112/102
f 128/113/103 129/115/104 127/112/102
f 127/114/102 129/115/104 77/72/72
f 129/115/104 76/73/73 77/72/72
f 58/24/24 51/13/13 128/113/103
f 51/13/13 50/116/105 128/113/103
f 128/113/103 50/116/105 129/115/104
f 50/116/105 49/117/106 129/115/104
f 129/115/104 49/117/106 76/73/73
f 49/117/106 7/28/28 76/73/73
f 54/118/107 75/29/29 7/28/28
f 53/119/108 130/120/109 54/118/107
f 52/23/23 131/121/110 53/119/108
f 54/118/107 130/120/109 75/29/29
f 130/120/109 74/77/77 75/29/29
f 53/119/108 131/121/110 130/120/109
f 131/121/110 132/122/111 130/120/109
f 130/120/109 132/122/111 74/77/77
f 132/122/111 73/78/78 74/77/77
f 52/23/23 45/10/10 131/121/110
f 45/10/10 44/123/112 131/121/110
f 131/121/110 44/123/112 132/122/111
f 44/123/112 43/124/113 132/122/111
f 132/122/111 43/124/113 73/78/78
f 43/124/113 11/40/40 73/78/78
f 67/85/85 72/86/86 10/37/37
f 68/84/84 133/125/114 67/85/85
f 69/22/22 134/126/115 68/84/84
f 67/85/85 133/125/114 72/86/86
f 133/127/114 71/87/87 72/89/86
f 68/84/84 134/126/115 133/125/114
f 134/126/115 135/128/116 133/127/114
f 133/127/114 135/128/116 71/87/87
f 135/128/116 70/26/26 71/87/87
f 69/22/22 42/21/21 134/126/115
f 42/21/21 41/129/117 134/126/115
f 134/126/115 41/129/117 135/128/116
f 41/129/117 40/130/118 135/128/116
f 135/128/116 40/130/118 70/26/26
f 40/130/118 5/17/17 70/26/26
f 61/95/92 66/98/93 9/97/34
f 62/94/91 136/131/119 61/95/92
f 63/19/19 137/132/120 62/94/91
f 61/95/92 136/131/119 66/98/93
f 136/131/119 65/100/94 66/98/93
f 62/94/91 137/132/120 136/131/119
f 137/132/120 138/133/121 136/131/119
f 136/131/119 138/133/121 65/100/94
f 138/133/121 64/25/25 65/100/94
f 63/19/19 39/18/18 137/132/120
f 39/18/18 38/134/122 137/132/120
f 137/132/120 38/134/122 138/133/121
f 38/134/122 37/135/123 138/133/121
f 138/133/121 37/135/123 64/25/25
f 37/135/123 4/14/14 64/25/25
f 55/107/99 60/109/100 8/108/31
f 56/106/98 139/136/124 55/107/99
f 57/16/16 140/137/125 56/106/98
f 55/107/99 139/136/124 60/109/100
f 139/136/124 59/111/101 60/109/100
f 56/106/98 140/137/125 139/136/124
f 140/137/125 141/138/126 139/136/124
f 139/136/124 141/138/126 59/111/101
f 141/138/126 58/24/24 59/111/101
f 57/16/16 33/15/15 140/137/125
f 33/15/15 32/139/127 140/137/125
f 140/137/125 32/139/127 141/138/126
f 32/139/127 31/140/128 141/138/126
f 141/138/126 31/140/128 58/24/24
f 31/140/128 3/11/11 58/24/24
f 49/117/106 54/118/107 7/28/28
f 50/116/105 142/141/129 49/117/106
f 51/13/13 143/142/130 50/116/105
f 49/117/106 142/141/129 54/118/107
f 142/141/129 53/119/108 54/118/107
f 50/116/105 143/142/130 142/141/129
f 143/142/130 144/143/131 142/141/129
f 142/141/129 144/143/131 53/119/108
f 144/143/131 52/23/23 53/119/108
f 51/13/13 21/12/12 143/142/130
f 21/12/12 20/144/132 143/142/130
f 143/142/130 20/144/132 144/143/131
f 20/144/132 19/145/133 144/143/131
f 144/143/131 19/145/133 52/23/23
f 19/145/133 2/4/4 52/23/23
f 43/124/113 48/79/79 11/40/40
f 44/123/112 145/146/134 43/124/113
f 45/10/10 146/147/135 44/123/112
f 43/124/113 145/146/134 48/79/79
f 145/146/134 47/80/80 48/79/79
f 44/123/112 146/147/135 145/146/134
f 146/147/135 147/148/136 145/146/134
f 145/146/134 147/148/136 47/80/80
f 147/148/136 46/27/27 47/80/80
f 45/10/10 24/6/6 146/147/135
f 24/6/6 23/149/137 146/147/135
f 146/147/135 23/149/137 147/148/136
f 23/149/137 22/150/138 147/148/136
f 147/148/136 22/150/138 46/27/27
f 22/150/138 6/20/20 46/27/27
f 27/151/139 42/21/21 6/20/20
f 26/152/140 148/153/141 27/151/139
f 25/9/9 149/154/142 26/152/140
f 27/151/139 148/153/141 42/21/21
f 148/153/141 41/129/117 42/21/21
f 26/152/140 149/154/142 148/153/141
f 149/154/142 150/155/143 148/153/141
f 148/153/141 150/155/143 41/129/117
f 150/155/143 40/130/118 41/129/117
f 25/9/9 36/8/8 149/154/142
f 36/8/8 35/156/144 149/154/142
f 149/154/142 35/156/144 150/155/143
f 35/156/144 34/157/145 150/155/143
f 150/155/143 34/157/145 40/130/118
f 34/157/145 5/17/17 40/130/118
f 34/157/145 39/18/18 5/17/17
f 35/156/144 151/158/146 34/157/145
f 36/8/8 152/159/147 35/156/144
f 34/157/145 151/158/146 39/18/18
f 151/158/146 38/134/122 39/18/18
f 35/156/144 152/159/147 151/158/146
f 152/159/147 153/160/148 151/158/146
f 151/158/146 153/160/148 38/134/122
f 153/160/148 37/135/123 38/134/122
f 36/8/8 30/7/7 152/159/147
f 30/7/7 29/161/149 152/159/147
f 152/159/147 29/161/149 153/160/148
f 29/161/149 28/162/150 153/160/148
f 153/160/148 28/162/150 37/135/123
f 28/162/150 4/14/14 37/135/123
f 28/162/150 33/15/15 4/14/14
f 29/161/149 154/163/151 28/162/150
f 30/7/7 155/164/152 29/161/149
f 28/162/150 154/163/151 33/15/15
f 154/163/151 32/139/127 33/15/15
f 29/161/149 155/164/152 154/163/151
f 155/164/152 156/165/153 154/163/151
f 154/163/151 156/165/153 32/139/127
f 156/165/153 31/140/128 32/139/127
f 30/7/7 15/3/3 155/164/152
f 15/3/3 14/166/154 155/164/152
f 155/164/152 14/166/154 156/165/153
f 14/166/154 13/167/155 156/165/153
f 156/165/153 13/167/155 31/140/128
f 13/167/155 3/11/11 31/140/128
f 22/150/138 27/151/139 6/20/20
f 23/149/137 157/168/156 22/150/138
f 24/6/6 158/169/157 23/149/137
f 22/150/138 157/168/156 27/151/139
f 157/168/156 26/152/140 27/151/139
f 23/149/137 158/169/157 157/168/156
f 158/169/157 159/170/158 157/168/156
f 157/168/156 159/170/158 26/152/140
f 159/170/158 25/9/9 26/152/140
f 24/6/6 18/5/5 158/169/157
f 18/5/5 17/171/159 158/169/157
f 158/169/157 17/171/159 159/170/158
f 17/171/159 16/2/2 159/170/158
f 159/170/158 16/2/2 25/9/9
f 16/2/2 1/1/1 25/9/9
f 13/167/155 21/12/12 3/11/11
f 14/166/154 160/172/160 13/167/155
f 15/3/3 161/173/161 14/166/154
f 13/167/155 160/172/160 21/12/12
f 160/172/160 20/144/132 21/12/12
f 14/166/154 161/173/161 160/172/160
f 161/173/161 162/174/162 160/172/160
f 160/172/160 162/174/162 20/144/132
f 162/174/162 19/145/133 20/144/132
f 15/3/3 16/2/2 161/173/161
f 16/2/2 17/171/159 161/173/161
f 161/173/161 17/171/159 162/174/162
f 17/171/159 18/5/5 162/174/162
f 162/174/162 18/5/5 19/145/133
f 18/5/5 2/4/4 19/145/133
